{"glyphs":{"0":{"ha":688,"x_min":0,"x_max":0,"o":"m 344 -17 b 91 235 247 -17 144 68 b 52 486 65 315 52 399 b 200 924 52 654 102 833 b 344 989 247 968 294 989 b 596 739 437 989 541 907 b 635 486 623 658 635 574 b 490 50 635 318 587 142 b 344 -17 443 5 395 -17 m 370 18 b 520 270 435 18 497 108 b 530 419 527 318 530 368 b 404 903 530 616 477 818 b 317 954 374 937 345 954 b 224 884 278 954 250 926 b 157 552 178 809 157 680 b 283 71 157 363 207 161 b 370 18 312 36 341 18 "},"1":{"ha":688,"x_min":0,"x_max":0,"o":"m 159 0 l 159 34 l 224 34 b 294 193 271 34 294 87 l 294 732 b 214 819 294 790 267 819 l 148 819 l 148 853 b 370 972 280 882 354 922 l 404 972 l 404 193 b 473 34 404 87 427 34 l 538 34 l 538 0 "},"2":{"ha":688,"x_min":0,"x_max":0,"o":"m 77 0 l 78 34 b 490 703 353 339 490 562 b 305 935 490 842 393 935 b 119 846 229 935 166 905 l 104 846 l 104 879 b 182 949 121 901 147 925 b 307 986 216 974 258 986 b 599 703 475 986 599 861 b 174 81 599 584 457 377 l 460 81 b 602 157 519 81 566 106 l 635 157 l 565 0 "},"3":{"ha":688,"x_min":0,"x_max":0,"o":"m 289 -15 b 56 71 146 -15 56 28 l 56 139 l 90 139 b 295 15 90 60 182 15 b 443 94 363 15 412 41 b 488 284 473 146 488 210 b 458 424 488 331 478 378 b 338 524 438 469 398 503 l 338 537 b 436 619 375 557 408 585 b 479 761 465 653 479 701 b 329 952 479 857 434 940 b 208 846 269 952 208 909 l 179 846 l 179 954 b 334 986 179 972 258 986 b 578 760 469 986 578 916 b 406 553 578 682 526 608 b 538 463 448 547 492 517 b 607 273 584 408 607 345 b 509 74 607 199 574 133 b 289 -15 444 15 371 -15 "},"4":{"ha":688,"x_min":0,"x_max":0,"o":"m 407 762 l 119 297 l 407 297 m 300 0 l 300 34 l 352 34 b 407 115 389 34 407 61 l 407 229 l 29 229 l 29 253 l 477 972 l 500 972 l 500 297 b 644 387 568 297 612 317 l 677 387 l 607 229 l 500 229 l 500 113 b 549 34 500 60 516 34 l 600 34 l 600 0 "},"5":{"ha":688,"x_min":0,"x_max":0,"o":"m 283 -15 b 52 67 142 -15 52 27 l 52 139 l 83 139 b 289 15 83 56 176 15 b 481 330 419 15 481 111 b 214 581 481 469 378 581 b 155 578 195 581 176 580 l 253 972 l 522 972 b 597 1008 568 972 593 984 l 631 1008 l 589 891 l 298 891 l 227 610 b 600 321 429 610 600 485 b 503 74 600 216 568 133 b 283 -15 438 15 365 -15 "},"6":{"ha":688,"x_min":0,"x_max":0,"o":"m 378 7 b 531 242 474 7 531 113 b 463 469 531 334 509 410 b 317 557 418 528 369 557 b 157 318 237 557 157 458 b 222 111 157 249 179 180 b 378 7 265 42 317 7 m 385 -17 b 136 94 275 -17 192 20 b 52 346 80 167 52 251 b 194 777 52 490 100 634 b 543 989 288 918 405 989 l 543 957 b 163 518 391 947 243 803 b 344 581 207 560 267 581 b 596 433 437 581 541 532 b 635 282 623 385 635 334 b 385 -17 635 109 494 -17 "},"7":{"ha":688,"x_min":0,"x_max":0,"o":"m 217 0 l 217 34 l 262 34 b 311 123 295 34 311 64 b 500 891 320 256 382 513 l 229 891 b 99 815 169 891 125 866 l 65 815 l 135 972 l 623 972 l 622 939 b 371 121 454 547 371 275 b 416 34 371 63 386 34 l 496 34 l 496 0 "},"8":{"ha":688,"x_min":0,"x_max":0,"o":"m 374 563 b 480 647 429 574 465 602 b 498 742 492 681 498 713 b 393 947 498 826 448 913 b 315 970 363 966 342 970 b 197 858 266 967 216 930 b 189 790 191 836 189 813 b 227 648 189 743 201 694 b 374 563 244 616 294 587 m 378 4 b 520 149 439 7 498 57 b 530 235 527 176 530 205 b 477 429 530 300 514 368 b 320 532 449 474 397 509 b 197 426 269 523 228 488 b 159 286 172 374 159 328 b 161 262 159 278 160 270 b 283 34 173 172 216 79 b 378 4 319 9 344 4 m 344 -17 b 91 129 247 -17 144 33 b 52 273 65 174 52 222 b 200 526 52 370 102 473 b 256 550 218 536 237 544 b 101 760 163 585 101 663 b 224 957 101 836 143 916 b 344 986 263 977 302 986 b 554 873 422 986 509 949 b 587 760 576 838 587 800 b 431 550 587 667 524 580 b 596 419 501 527 557 487 b 635 273 623 372 635 324 b 490 22 635 176 586 75 b 344 -17 443 -4 395 -17 "},"9":{"ha":688,"x_min":0,"x_max":0,"o":"m 371 416 b 531 654 451 416 531 515 b 466 862 531 724 509 793 b 309 965 422 930 370 965 b 157 730 214 965 157 859 b 225 505 157 639 180 564 b 371 416 271 446 319 416 m 144 16 b 524 454 297 26 444 170 b 344 391 481 412 421 391 b 92 541 250 391 146 440 b 52 690 65 588 52 638 b 303 989 52 864 193 989 b 552 880 413 989 496 953 b 635 627 608 806 635 722 b 494 197 635 482 588 338 b 144 -17 399 54 283 -17 "}," ":{"ha":345,"x_min":0,"x_max":0,"o":""},"!":{"ha":456,"x_min":0,"x_max":0,"o":"m 212 222 l 179 925 b 235 987 179 966 198 987 b 292 925 273 987 292 966 l 237 222 m 227 -3 b 207 6 219 -3 213 0 l 147 75 b 140 92 142 81 140 86 b 151 113 140 99 144 106 l 207 170 b 227 180 214 176 220 180 b 248 169 233 180 239 176 l 302 111 b 310 91 307 103 310 97 b 300 70 310 84 307 77 l 246 10 b 227 -3 237 1 231 -3 "},"\"":{"ha":456,"x_min":0,"x_max":0,"o":"m 113 751 l 71 995 b 68 1017 69 1005 68 1013 b 123 1069 68 1050 87 1069 b 178 1018 158 1069 178 1051 b 176 995 178 1015 178 1006 l 134 751 m 325 751 l 283 995 b 280 1017 281 1005 280 1013 b 334 1069 280 1050 299 1069 b 390 1018 370 1069 390 1051 b 387 995 390 1015 389 1006 l 345 751 "},"#":{"ha":906,"x_min":0,"x_max":0,"o":"m 569 583 l 404 583 l 347 386 l 511 386 m 397 0 l 491 320 l 328 320 l 232 0 l 170 0 l 264 320 l 79 320 l 100 387 l 283 387 l 342 583 l 142 583 l 161 649 l 361 649 l 456 972 l 519 972 l 424 649 l 588 649 l 684 972 l 747 972 l 651 649 l 827 649 l 807 583 l 631 583 l 575 387 l 764 387 l 744 320 l 554 320 l 459 0 "},"$":{"ha":688,"x_min":0,"x_max":0,"o":"m 342 -174 l 342 -13 b 161 13 257 -12 197 -3 b 149 17 157 16 153 17 b 121 -14 137 17 128 7 l 87 -14 l 87 211 l 120 211 b 224 58 142 128 177 77 b 342 28 270 38 309 28 l 342 459 b 77 732 151 519 77 590 b 342 985 77 877 189 971 l 342 1053 l 391 1053 l 391 983 b 487 960 422 980 454 972 b 500 956 492 957 496 956 b 528 986 511 956 520 966 l 562 986 l 631 795 l 598 795 b 484 916 571 855 533 896 b 391 943 451 930 420 939 l 391 576 b 665 273 603 495 665 433 b 585 70 665 184 638 117 b 391 -12 530 23 466 -4 l 391 -174 m 391 31 b 593 244 500 45 593 112 b 391 444 593 345 547 395 l 391 31 m 342 945 b 149 772 233 940 149 871 b 186 669 149 728 161 694 b 342 592 210 644 261 618 "},"%":{"ha":1092,"x_min":0,"x_max":0,"o":"m 304 475 b 77 605 218 475 125 519 b 42 732 54 645 42 688 b 176 956 42 819 87 910 b 304 989 217 979 260 989 b 532 862 389 989 482 947 b 567 732 555 821 567 778 b 436 510 567 646 524 557 b 304 475 394 487 350 475 m 327 494 b 472 698 421 494 472 593 b 359 945 472 799 426 901 b 273 971 326 966 304 971 b 147 844 220 968 167 926 b 137 765 140 818 137 791 b 327 494 137 623 232 494 m 201 -20 l 839 971 l 896 971 l 260 -20 m 787 -14 b 559 115 700 -14 608 30 b 525 243 536 155 525 198 b 659 467 525 330 570 420 b 787 500 700 490 743 500 b 1015 372 871 500 965 458 b 1050 243 1038 331 1050 288 b 919 20 1050 157 1006 68 b 787 -14 877 -2 833 -14 m 819 5 b 955 208 895 8 955 94 b 842 456 955 309 909 411 b 756 481 809 477 787 481 b 630 355 703 479 650 436 b 620 275 623 328 620 302 b 732 31 620 179 665 77 b 819 5 766 9 788 5 "},"&":{"ha":1141,"x_min":0,"x_max":0,"o":"m 510 49 b 713 133 587 49 667 80 l 337 596 b 174 399 226 596 174 503 b 510 49 174 219 328 49 m 456 -11 b 103 353 245 -11 103 142 b 307 636 103 502 176 595 b 251 790 271 689 251 738 b 427 986 251 884 328 986 b 523 960 457 986 490 977 b 535 956 527 957 531 956 b 561 986 545 956 554 966 l 592 986 l 657 795 l 626 795 b 521 916 601 856 566 896 b 425 941 482 933 450 941 b 326 831 366 941 326 896 b 395 650 326 772 349 711 l 755 195 b 848 449 837 318 848 394 b 806 515 848 493 834 515 l 745 515 l 745 549 l 1046 549 l 1046 515 l 985 515 b 886 361 942 515 909 463 b 781 163 872 301 838 235 b 960 71 838 92 890 71 b 1090 157 1025 78 1068 107 l 1124 157 l 1054 0 l 945 0 b 851 17 920 0 888 5 b 738 106 814 28 776 58 b 456 -11 680 43 582 -11 "},"'":{"ha":235,"x_min":0,"x_max":0,"o":"m 113 751 l 71 995 b 68 1017 69 1005 68 1013 b 123 1069 68 1050 87 1069 b 178 1018 158 1069 178 1051 b 176 995 178 1015 178 1006 l 134 751 "},"(":{"ha":514,"x_min":0,"x_max":0,"o":"m 420 -251 b 171 408 273 -88 173 144 b 420 1067 173 671 273 904 l 475 1067 b 280 400 314 840 280 705 b 475 -251 280 109 318 -31 "},")":{"ha":514,"x_min":0,"x_max":0,"o":"m 39 -251 b 234 415 201 -22 234 114 b 39 1067 234 710 195 848 l 94 1067 b 343 408 241 904 341 671 b 94 -251 341 144 241 -88 "},"*":{"ha":694,"x_min":0,"x_max":0,"o":"m 427 685 b 393 701 412 685 401 692 b 378 765 388 709 383 730 b 347 850 374 795 363 823 b 315 766 330 823 319 795 b 302 705 311 732 307 711 b 265 686 292 692 281 686 b 197 749 235 686 197 719 b 261 805 197 766 202 777 b 332 861 289 818 313 837 b 278 868 314 865 296 868 b 189 857 241 868 206 857 b 180 859 185 857 182 858 b 148 904 161 864 148 882 b 199 972 148 939 173 972 b 262 928 213 972 224 968 b 338 878 283 906 309 889 b 313 966 336 909 328 939 b 288 1023 296 996 288 1015 b 346 1071 288 1052 311 1071 b 404 1027 378 1071 404 1054 b 380 966 404 1017 396 997 b 355 878 365 939 357 909 b 431 929 385 890 410 907 b 492 972 471 971 480 972 b 546 905 523 972 546 939 b 517 861 546 882 536 866 b 505 859 515 860 511 859 b 416 869 486 859 449 869 b 361 861 397 869 379 866 b 432 805 380 836 404 818 b 486 773 463 791 481 780 b 494 747 492 765 494 756 b 427 685 494 715 457 685 "},"+":{"ha":688,"x_min":0,"x_max":0,"o":"m 296 188 l 296 439 l 59 439 l 59 534 l 296 534 l 296 784 l 297 785 l 391 785 l 391 534 l 628 534 l 629 533 l 629 439 l 391 439 l 391 188 "},",":{"ha":378,"x_min":0,"x_max":0,"o":"m 109 -176 b 168 -47 142 -157 162 -114 b 81 62 168 6 139 43 l 81 90 l 161 175 b 252 28 201 175 252 108 b 109 -205 252 -70 173 -205 "},"-":{"ha":454,"x_min":0,"x_max":0,"o":"m 106 277 b 79 296 87 277 79 283 l 79 353 b 106 372 79 366 88 372 l 348 372 b 376 353 366 372 376 366 l 376 296 b 349 277 376 283 367 277 "},".":{"ha":378,"x_min":0,"x_max":0,"o":"m 174 -3 b 154 6 166 -3 160 0 l 94 75 b 87 92 90 81 87 86 b 98 113 87 99 91 106 l 154 170 b 174 180 161 176 168 180 b 195 169 180 180 186 176 l 249 111 b 257 91 254 103 257 97 b 248 70 257 84 254 77 l 193 10 b 174 -3 184 1 178 -3 "},"/":{"ha":386,"x_min":0,"x_max":0,"o":"m 9 -34 l 376 972 l 430 972 l 63 -34 "},":":{"ha":378,"x_min":0,"x_max":0,"o":"m 174 -3 b 154 6 166 -3 160 0 l 94 75 b 87 92 90 81 87 86 b 98 113 87 99 91 106 l 154 170 b 174 180 161 176 168 180 b 195 169 180 180 186 176 l 249 111 b 257 91 254 103 257 97 b 248 70 257 84 254 77 l 193 10 b 174 -3 184 1 178 -3 m 174 467 b 154 476 166 467 160 470 l 94 545 b 87 562 90 551 87 556 b 98 583 87 569 91 576 l 154 640 b 174 650 161 646 168 650 b 195 639 180 650 186 646 l 249 581 b 257 561 254 573 257 567 b 248 540 257 554 254 547 l 193 480 b 174 467 184 471 178 467 "},";":{"ha":378,"x_min":0,"x_max":0,"o":"m 174 466 b 154 475 166 466 160 469 l 94 544 b 87 562 90 550 87 555 b 98 583 87 568 91 575 l 154 640 b 174 649 161 646 168 649 b 195 638 180 649 186 646 l 249 580 b 257 560 254 572 257 566 b 248 539 257 553 254 547 l 193 479 b 174 466 184 471 178 466 m 109 -176 b 168 -47 142 -157 162 -114 b 81 62 168 6 139 43 l 81 90 l 161 175 b 252 28 201 175 252 108 b 109 -205 252 -70 173 -205 "},"<":{"ha":688,"x_min":0,"x_max":0,"o":"m 59 457 l 59 513 l 629 842 l 629 728 l 205 485 l 629 244 l 629 131 "},"=":{"ha":688,"x_min":0,"x_max":0,"o":"m 59 333 l 59 428 l 629 428 l 629 333 m 59 545 l 59 640 l 629 640 l 629 545 "},">":{"ha":688,"x_min":0,"x_max":0,"o":"m 59 244 l 483 485 l 59 728 l 59 842 l 629 513 l 629 457 l 59 131 "},"?":{"ha":507,"x_min":0,"x_max":0,"o":"m 206 230 b 172 373 184 292 172 340 b 252 585 172 422 199 493 b 330 794 304 676 330 746 b 210 913 330 866 288 913 b 90 859 172 913 132 895 l 90 902 b 254 972 147 949 202 972 b 452 803 370 972 452 909 b 345 582 452 739 425 682 b 214 358 262 477 214 418 b 238 230 214 330 222 287 m 227 -3 b 207 6 219 -3 213 0 l 147 75 b 140 92 142 81 140 86 b 151 113 140 99 144 106 l 207 170 b 227 180 214 176 220 180 b 248 169 233 180 239 176 l 302 111 b 310 91 307 103 310 97 b 300 70 310 84 307 77 l 246 10 b 227 -3 237 1 231 -3 "},"@":{"ha":1369,"x_min":0,"x_max":0,"o":"m 678 42 b 764 155 722 44 751 82 l 764 478 b 659 422 739 450 705 431 b 557 368 622 417 587 399 b 511 233 526 336 511 291 b 554 101 511 184 525 140 b 678 42 583 62 625 42 m 696 -283 b 151 32 488 -283 266 -176 b 68 345 96 131 68 235 b 387 892 68 555 177 779 b 696 972 486 945 589 972 b 1109 817 859 972 997 920 b 1276 433 1221 713 1276 585 b 1157 135 1276 311 1236 212 b 922 20 1078 59 1000 20 b 812 68 863 20 833 37 b 667 6 787 35 740 6 b 416 233 538 6 416 109 b 543 424 417 311 468 391 b 660 457 578 439 618 451 b 764 536 720 471 764 492 b 736 621 763 568 753 596 b 648 659 718 646 689 659 b 532 534 581 659 532 594 l 501 534 l 501 642 b 671 683 501 661 575 683 b 859 532 766 681 859 622 l 859 133 b 923 54 859 80 880 54 b 1104 184 1006 69 1067 113 b 1160 443 1141 254 1160 340 b 677 937 1142 744 939 937 b 228 602 495 937 304 806 b 182 357 197 522 182 440 b 271 11 182 216 212 100 b 477 -186 329 -79 398 -145 b 693 -249 557 -228 629 -249 b 1083 -108 817 -249 947 -202 l 1083 -159 b 696 -283 964 -242 835 -283 "},"A":{"ha":501,"x_min":0,"x_max":0,"o":"m 405 31 b 335 94 361 31 335 60 l 335 499 l 136 499 l 136 32 b 135 31 136 31 136 31 l 68 31 b 1 83 33 31 11 48 l 0 98 l 0 902 b 52 969 0 937 18 959 l 68 970 l 403 970 b 470 918 437 970 460 952 l 471 902 l 471 32 b 469 31 471 31 470 31 m 401 0 b 338 43 364 0 343 23 l 340 43 b 398 17 357 26 376 17 l 484 17 l 484 907 b 458 965 484 928 475 948 l 458 966 b 501 909 473 966 501 940 l 500 1 b 499 0 500 1 500 0 m 335 811 l 136 811 l 136 657 l 335 657 m 152 671 b 151 672 151 671 151 671 l 151 796 b 152 798 151 798 151 798 l 319 798 b 321 796 320 798 321 798 l 321 783 b 319 781 321 781 320 781 l 167 781 l 167 672 b 165 671 167 671 167 671 m 69 0 b 5 43 28 0 7 26 l 6 43 b 65 17 23 26 43 17 l 151 17 l 151 484 b 152 486 151 485 151 486 l 319 486 b 321 484 320 486 321 485 l 321 470 b 319 469 321 469 320 469 l 167 469 l 167 1 b 165 0 167 1 167 0 "},"B":{"ha":501,"x_min":0,"x_max":0,"o":"m 60 31 b 0 93 32 31 0 57 l 0 908 b 47 968 0 936 16 956 l 60 970 l 410 970 b 470 908 438 970 470 944 l 470 682 b 435 579 470 648 458 614 l 435 578 b 470 475 458 544 470 509 l 470 33 b 469 31 470 32 469 31 m 62 0 b 3 43 35 0 16 14 b 5 45 3 45 3 44 b 73 17 20 26 42 17 l 484 17 l 484 460 b 452 578 484 507 473 545 l 452 579 b 484 697 473 612 484 651 l 484 901 b 458 965 484 927 475 949 l 458 966 b 501 908 484 958 501 934 l 501 683 b 472 578 501 649 492 614 b 501 474 492 543 501 509 l 501 1 b 500 0 501 1 500 0 m 267 657 b 334 726 309 657 334 681 l 334 812 l 136 812 l 136 657 l 267 657 m 151 671 b 150 673 151 671 150 672 l 150 796 b 151 798 150 798 151 798 l 319 798 b 320 796 319 798 320 798 l 320 783 b 319 781 320 781 319 781 l 167 781 l 167 673 b 165 671 167 672 167 671 m 334 432 b 267 500 334 475 311 500 l 136 500 l 136 189 l 334 189 m 151 203 b 150 205 151 203 150 203 l 150 484 b 151 486 150 485 151 486 l 275 486 b 319 451 294 486 309 474 l 319 450 l 317 449 b 267 469 306 462 289 469 l 167 469 l 167 205 b 165 203 167 203 167 203 "},"C":{"ha":501,"x_min":0,"x_max":0,"o":"m 61 31 b 0 92 32 31 0 56 l 0 909 b 61 970 0 938 25 970 l 409 970 b 470 909 438 970 470 945 l 470 657 b 469 656 470 656 469 656 l 336 656 b 334 657 334 656 334 656 l 334 812 l 136 812 l 136 189 l 334 189 l 334 284 b 395 345 334 313 359 345 l 469 345 b 470 344 469 345 470 345 l 470 33 b 469 31 470 32 469 31 m 351 625 b 350 626 350 625 350 625 l 350 640 b 351 642 350 642 351 642 l 484 642 l 484 902 b 458 965 484 928 475 949 b 459 966 458 966 458 966 b 501 909 487 954 501 935 l 501 626 b 500 625 501 625 500 625 m 151 203 b 150 205 151 203 150 203 l 150 796 b 151 798 150 798 151 798 l 319 798 b 320 796 319 798 320 798 l 320 783 b 319 781 320 781 319 781 l 167 781 l 167 205 b 165 203 167 203 167 203 m 61 0 b 3 42 35 0 16 14 b 5 43 3 44 3 43 b 68 17 20 26 41 17 l 484 17 l 484 328 b 486 330 484 329 485 330 l 500 330 b 501 328 500 330 501 329 l 501 1 b 500 0 501 1 500 0 "},"D":{"ha":501,"x_min":0,"x_max":0,"o":"m 60 31 b 0 92 28 31 0 61 l 0 909 b 60 970 0 941 30 970 l 286 970 b 436 890 345 970 395 943 b 470 785 458 856 470 821 l 470 33 b 469 31 470 32 469 31 m 60 0 b 7 35 39 0 21 12 b 3 43 5 39 3 42 l 5 45 b 68 17 20 26 42 17 l 484 17 l 484 773 b 395 949 484 848 454 907 l 395 951 l 396 951 b 492 840 442 928 475 890 b 501 785 498 820 501 802 l 501 1 b 500 0 501 1 500 0 m 332 189 b 334 191 334 189 334 189 l 334 719 b 250 812 334 786 297 812 l 138 812 b 136 810 136 812 136 811 l 136 191 b 138 189 136 189 136 189 l 332 189 m 151 203 b 150 205 151 203 150 203 l 150 796 b 151 798 150 798 151 798 l 257 798 b 315 758 283 798 302 785 l 316 754 l 316 753 l 315 753 b 250 781 300 772 277 781 l 169 781 b 167 779 168 781 167 780 l 167 205 b 165 203 167 203 167 203 "},"E":{"ha":501,"x_min":0,"x_max":0,"o":"m 77 31 b 0 94 20 31 0 63 l 0 905 b 47 968 0 935 16 956 b 65 970 52 969 58 970 l 407 970 b 468 924 435 970 455 955 b 471 891 470 918 471 907 l 471 813 b 469 811 471 812 470 811 l 136 811 l 136 657 l 335 657 b 336 656 336 657 336 656 l 336 500 b 335 499 336 499 336 499 l 136 499 l 136 189 l 469 189 b 471 187 470 189 471 189 l 471 32 b 469 31 471 31 470 31 m 151 671 b 150 672 151 671 150 671 l 150 796 b 151 798 150 798 151 798 l 484 798 l 484 903 b 456 965 484 928 475 948 l 458 966 b 501 907 487 954 501 935 l 501 783 b 500 781 501 781 500 781 l 167 781 l 167 672 b 165 671 167 671 167 671 m 151 202 b 150 204 151 202 150 203 l 150 484 b 151 486 150 485 151 486 l 319 486 b 321 484 320 486 321 485 l 321 470 b 319 469 321 469 320 469 l 167 469 l 167 204 b 165 202 167 203 167 202 m 63 0 b 3 43 35 0 16 14 l 5 45 b 66 17 21 26 42 17 l 484 17 l 484 172 b 486 174 484 173 485 174 l 500 174 b 501 172 500 173 501 173 l 501 1 b 500 0 501 1 500 0 "},"F":{"ha":501,"x_min":0,"x_max":0,"o":"m 77 31 b 0 94 20 31 0 63 l 0 905 b 47 968 0 935 16 956 b 65 970 52 969 58 970 l 407 970 b 468 924 435 970 455 955 b 471 891 470 918 471 907 l 471 813 b 469 811 471 812 470 811 l 136 811 l 136 657 l 335 657 b 336 656 336 657 336 656 l 336 500 b 335 499 336 499 336 499 l 136 499 l 136 32 b 135 31 136 31 136 31 m 151 671 b 150 672 151 671 150 671 l 150 796 b 151 798 150 798 151 798 l 484 798 l 484 903 b 456 965 484 928 475 948 l 458 966 b 501 907 487 954 501 935 l 501 783 b 500 781 501 781 500 781 l 167 781 l 167 672 b 165 671 167 671 167 671 m 63 0 b 3 43 35 0 16 14 l 5 45 b 66 17 21 26 42 17 l 150 17 l 150 484 b 151 486 150 485 151 486 l 319 486 b 321 484 320 486 321 485 l 321 470 b 319 469 321 469 320 469 l 167 469 l 167 1 b 165 0 167 1 167 0 "},"G":{"ha":503,"x_min":0,"x_max":0,"o":"m 62 31 b 6 68 37 31 19 43 b 0 108 2 74 0 87 l 0 892 b 18 949 0 921 6 940 b 62 969 31 962 45 969 l 411 969 b 471 906 442 969 471 943 l 471 813 b 469 812 471 812 470 812 l 136 812 l 136 189 l 334 189 l 334 499 l 235 499 b 234 501 235 499 234 500 l 234 580 b 249 634 234 607 239 625 b 296 657 262 650 278 657 l 469 657 b 471 655 470 657 471 656 l 471 33 b 469 31 471 32 470 31 m 151 203 b 150 204 151 203 150 203 l 150 796 b 151 798 150 797 151 798 l 484 798 l 484 910 b 458 964 484 929 475 947 l 458 966 b 502 906 483 958 502 935 l 502 895 b 503 867 502 880 502 871 l 502 836 l 502 782 b 500 781 502 781 501 781 l 168 781 l 168 204 b 166 203 168 203 168 203 m 62 0 b 5 40 37 0 18 14 b 4 43 4 41 4 42 l 6 43 b 68 17 20 26 41 17 l 484 17 l 484 671 l 307 671 b 239 644 277 671 254 662 l 238 644 l 238 646 b 267 680 244 662 254 674 b 326 689 273 686 292 689 l 501 688 l 502 686 l 502 1 b 500 0 502 1 501 0 "},"H":{"ha":501,"x_min":0,"x_max":0,"o":"m 397 31 b 336 77 369 31 349 47 b 334 104 335 85 334 94 l 334 500 l 136 500 l 136 33 b 135 31 136 32 136 31 l 62 31 b 2 77 35 31 15 46 b 0 93 1 82 0 87 l 0 908 b 45 968 0 935 15 955 b 62 970 51 969 56 970 l 135 970 b 136 968 136 970 136 969 l 136 657 l 334 657 l 334 968 b 336 970 334 969 335 970 l 408 970 b 468 924 435 970 455 955 b 470 908 469 919 470 913 l 470 33 b 469 31 470 32 469 31 m 397 0 b 340 38 372 0 353 13 l 338 43 l 340 45 b 403 17 355 26 376 17 l 484 17 l 484 902 b 458 965 484 928 475 949 l 458 966 b 501 908 473 965 501 939 l 501 1 b 500 0 501 1 500 0 m 151 671 b 150 673 151 671 150 672 l 150 953 b 151 954 150 954 151 954 l 166 954 b 168 953 168 954 168 954 l 168 673 b 166 671 168 672 168 671 m 62 0 b 4 41 37 0 17 14 l 3 43 l 5 43 b 68 17 21 26 42 17 l 150 17 l 150 484 b 151 486 150 485 151 486 l 319 486 b 321 484 320 486 321 485 l 321 470 b 319 469 321 469 320 469 l 168 469 l 168 1 b 166 0 168 1 168 0 "},"I":{"ha":167,"x_min":0,"x_max":0,"o":"m 61 31 b 0 92 32 31 0 56 l 0 907 b 61 968 0 937 24 968 b 134 924 97 968 117 964 b 136 907 135 918 136 913 l 136 33 b 134 31 136 32 135 31 m 61 0 b 4 41 35 0 16 14 b 3 43 3 41 3 43 l 5 43 b 68 17 20 26 41 17 l 150 17 l 150 901 b 123 964 150 927 141 948 l 123 965 l 124 965 b 167 907 152 956 167 932 l 167 1 b 165 0 167 1 166 0 "},"J":{"ha":501,"x_min":0,"x_max":0,"o":"m 62 31 b 0 94 26 31 0 64 l 0 284 b 61 345 0 313 25 345 l 134 345 b 136 344 136 345 136 345 l 136 189 l 334 189 l 334 968 b 336 970 334 969 335 970 l 409 970 b 470 909 438 970 470 945 l 470 33 b 469 31 470 32 469 31 m 62 0 b 3 43 36 0 16 14 b 5 45 3 45 3 44 b 69 17 21 26 42 17 l 484 17 l 484 902 b 458 965 484 928 475 949 l 458 966 l 458 966 b 501 909 486 957 501 933 l 501 1 b 500 0 501 1 500 0 m 151 203 b 150 205 151 203 150 203 l 150 328 b 151 330 150 329 151 330 l 165 330 b 167 328 167 330 167 329 l 167 205 b 165 203 167 203 167 203 "},"K":{"ha":501,"x_min":0,"x_max":0,"o":"m 394 31 b 334 102 366 31 334 53 l 334 432 b 270 500 334 475 305 500 l 136 500 l 136 33 b 134 31 136 32 136 31 l 62 31 b 0 93 27 31 0 62 l 0 908 b 62 970 0 937 25 970 l 134 970 b 136 968 136 970 136 969 l 136 659 b 138 657 136 658 136 657 l 265 657 b 332 705 300 657 323 673 b 334 726 334 708 334 715 l 334 968 b 336 970 334 969 335 970 l 408 970 b 470 908 437 970 470 945 l 470 682 b 435 579 470 648 458 614 l 435 578 b 470 473 458 544 470 509 l 470 33 b 469 31 470 32 469 31 m 397 0 b 340 38 372 0 353 13 l 338 43 l 340 45 b 405 17 354 26 376 17 l 484 17 l 484 460 b 452 578 484 507 473 546 l 452 579 b 484 697 473 612 484 651 l 484 901 b 458 965 484 928 475 949 l 458 966 b 501 908 485 958 501 932 l 501 683 b 472 578 501 649 492 614 b 501 473 492 544 501 509 l 501 1 b 500 0 501 1 500 0 m 151 671 b 150 673 151 671 150 672 l 150 953 b 151 954 150 954 151 954 l 165 954 b 167 953 167 954 167 954 l 167 673 b 165 671 167 672 167 671 m 62 0 b 3 43 35 0 15 14 l 5 45 b 77 17 18 27 37 17 l 149 17 b 150 19 149 17 150 18 l 150 484 b 151 486 150 485 151 486 l 275 486 b 319 450 295 486 310 474 l 319 450 l 317 450 b 267 469 304 463 288 469 l 167 469 l 167 1 b 165 0 167 1 167 0 "},"L":{"ha":501,"x_min":0,"x_max":0,"o":"m 1 31 b 0 32 1 31 0 31 l 0 908 b 46 968 0 936 16 956 b 67 970 52 969 59 970 l 134 970 b 136 968 136 970 136 969 l 136 189 l 404 189 b 470 127 444 189 470 159 l 470 32 b 469 31 470 31 469 31 m 151 201 b 149 203 150 201 149 202 l 149 952 b 151 954 149 953 150 954 l 165 954 b 166 952 165 954 166 953 l 166 203 b 165 201 166 202 165 201 m 18 0 b 16 1 17 0 16 1 l 16 16 b 18 18 16 18 17 18 l 484 18 l 484 120 b 456 185 484 147 475 168 l 458 186 b 487 167 464 185 474 179 b 501 128 496 155 501 142 l 501 1 b 500 0 501 1 500 0 "},"M":{"ha":501,"x_min":0,"x_max":0,"o":"m 401 31 b 334 92 365 31 334 56 l 334 683 b 239 505 333 683 301 623 b 235 500 237 502 235 500 b 136 683 227 512 138 680 l 136 32 b 134 31 136 31 136 31 l 68 31 b 1 83 33 31 10 48 l 0 94 l 0 909 b 68 970 0 936 20 970 l 134 970 b 156 932 135 970 142 958 l 234 784 l 236 784 b 335 970 300 905 333 967 l 404 970 b 468 925 435 970 456 955 b 470 910 469 919 470 914 l 470 32 b 469 31 470 31 469 31 m 233 814 b 151 969 231 820 203 871 l 153 970 l 170 970 b 236 847 174 965 195 924 l 236 814 m 403 0 b 353 17 378 0 361 5 b 336 45 343 28 338 37 l 338 45 b 396 18 355 27 374 18 l 484 18 l 484 902 b 455 966 484 929 474 950 l 455 966 b 492 941 465 966 475 960 b 501 908 498 928 501 918 l 501 1 b 500 0 501 1 500 0 m 68 0 b 2 45 33 0 14 14 l 4 46 b 63 18 21 27 41 18 l 149 18 l 149 629 l 151 629 l 228 484 l 220 467 l 218 467 b 165 564 188 524 170 557 l 165 1 b 164 0 165 1 165 0 "},"N":{"ha":501,"x_min":0,"x_max":0,"o":"m 394 31 b 334 92 363 31 334 61 l 334 500 l 136 747 l 136 33 b 134 31 136 32 136 31 l 60 31 b 0 92 28 31 0 61 l 0 909 b 60 970 0 941 30 970 l 135 970 l 334 723 l 334 968 b 336 970 334 969 335 970 l 410 970 b 470 909 441 970 470 940 l 470 33 b 469 31 470 32 469 31 m 154 969 l 155 970 l 175 970 b 320 789 178 967 227 907 l 320 765 b 319 764 320 764 319 764 m 394 0 b 341 34 374 0 356 12 l 337 43 l 339 45 b 403 17 355 26 376 17 l 484 17 l 484 901 b 456 965 484 928 475 949 b 458 966 457 966 457 966 b 495 935 474 961 486 950 b 501 909 499 925 501 916 l 501 1 b 500 0 501 1 500 0 m 60 0 b 7 34 39 0 22 12 l 3 43 l 5 45 b 68 17 20 26 42 17 l 150 17 l 150 705 b 151 706 150 705 151 706 l 304 515 l 304 490 b 303 489 304 490 304 489 b 167 657 214 600 168 656 l 167 1 b 165 0 167 1 167 0 "},"O":{"ha":501,"x_min":0,"x_max":0,"o":"m 62 31 b 0 93 33 31 0 56 l 0 908 b 62 970 0 937 25 970 l 408 970 b 470 908 437 970 470 945 l 470 93 b 408 31 470 64 445 31 m 62 0 b 3 42 36 0 16 14 l 3 46 l 4 46 b 66 18 20 27 41 18 l 406 18 b 484 98 446 18 484 47 l 484 903 b 455 966 484 929 474 950 l 455 966 b 501 908 472 966 501 941 l 501 92 b 410 0 501 42 457 0 m 334 810 b 332 812 334 812 334 812 l 138 812 b 136 810 136 812 136 811 l 136 189 l 334 189 m 151 202 b 149 204 150 202 149 203 l 149 798 b 151 799 149 798 150 799 l 319 799 b 321 798 320 799 321 798 l 321 783 b 319 781 321 781 320 781 l 169 781 b 167 779 168 781 167 780 l 167 204 b 165 202 167 203 167 202 "},"P":{"ha":502,"x_min":0,"x_max":0,"o":"m 64 32 b 3 77 35 32 15 47 b 0 100 1 83 0 90 l 0 901 b 48 968 0 935 16 957 b 68 969 56 968 62 969 l 402 969 b 469 921 436 969 458 953 l 470 905 l 470 565 b 425 503 470 535 455 514 b 404 499 419 500 412 499 l 136 499 l 136 33 b 135 32 136 33 136 32 m 80 1 b 5 41 42 1 21 5 l 5 43 l 5 43 b 62 18 22 26 41 18 l 151 18 l 151 484 b 152 486 151 485 151 486 l 407 486 b 484 562 447 486 484 517 l 484 907 b 459 964 484 928 475 947 l 459 965 l 460 965 b 501 891 489 954 501 934 l 502 560 b 399 467 502 515 466 467 l 168 467 l 168 1 l 168 0 m 334 811 l 136 811 l 136 658 l 334 658 m 152 671 b 151 673 151 671 151 672 l 151 795 b 152 797 151 796 151 797 l 318 797 b 319 795 319 797 319 796 l 319 781 b 318 779 319 779 319 779 l 168 779 l 168 673 b 167 671 168 672 168 671 "},"Q":{"ha":635,"x_min":0,"x_max":0,"o":"m 530 31 b 474 68 506 31 487 43 b 469 81 470 76 473 81 b 442 41 469 70 460 57 b 408 31 431 35 419 31 l 62 31 b 0 93 26 31 0 64 l 0 908 b 62 970 0 938 25 970 l 408 970 b 468 924 435 970 455 955 b 470 908 469 919 470 913 l 470 255 b 515 191 470 223 485 201 b 533 189 520 190 526 189 l 603 189 b 604 187 604 189 604 189 l 604 33 b 603 31 604 32 604 31 m 530 0 b 472 41 505 0 485 14 l 471 43 l 473 43 b 537 17 489 26 511 17 l 618 17 l 618 203 l 528 203 b 486 237 510 203 496 214 b 484 248 484 241 484 245 l 484 901 b 458 965 484 927 475 949 l 458 966 b 501 908 485 958 501 932 l 501 252 b 533 220 503 231 514 220 l 634 220 b 635 218 635 220 635 220 l 635 1 b 634 0 635 1 635 0 m 334 810 b 332 812 334 812 334 812 l 136 812 l 136 189 l 334 189 m 151 203 b 150 205 151 203 150 203 l 150 796 b 151 798 150 798 151 798 l 319 798 b 320 796 319 798 320 798 l 320 783 b 319 781 320 781 319 781 l 167 781 l 167 205 b 165 203 167 203 167 203 m 62 0 b 4 41 36 0 17 14 l 3 43 l 5 43 b 68 17 21 26 42 17 l 401 17 b 466 45 428 17 450 26 l 467 45 b 439 8 467 35 458 22 b 410 0 427 3 418 0 "},"R":{"ha":501,"x_min":0,"x_max":0,"o":"m 394 31 b 334 102 366 31 334 53 l 334 432 b 270 500 334 475 305 500 l 136 500 l 136 33 b 134 31 136 32 136 31 l 62 31 b 0 93 27 31 0 62 l 0 908 b 62 970 0 937 25 970 l 408 970 b 470 908 437 970 470 945 l 470 682 b 435 579 470 648 458 614 l 435 578 b 470 473 458 544 470 509 l 470 33 b 469 31 470 32 469 31 m 397 0 b 340 38 372 0 353 13 l 338 43 l 340 45 b 405 17 354 26 376 17 l 484 17 l 484 460 b 452 578 484 507 473 546 l 452 579 b 484 697 473 612 484 651 l 484 901 b 458 965 484 928 475 949 l 458 966 b 501 908 485 958 501 932 l 501 683 b 472 578 501 649 492 614 b 501 473 492 544 501 509 l 501 1 b 500 0 501 1 500 0 m 265 657 b 332 705 300 657 323 673 b 334 726 334 708 334 715 l 334 810 b 332 812 334 812 334 812 l 138 812 b 136 810 136 812 136 811 l 136 659 b 138 657 136 658 136 657 l 265 657 m 151 671 b 150 673 151 671 150 672 l 150 796 b 151 798 150 798 151 798 l 319 798 b 320 796 319 798 320 798 l 320 782 b 319 780 320 781 319 780 l 167 780 l 167 673 b 165 671 167 672 167 671 m 62 0 b 3 43 35 0 15 14 l 5 45 b 77 17 18 27 37 17 l 149 17 b 150 19 149 17 150 18 l 150 484 b 151 486 150 485 151 486 l 275 486 b 319 450 295 486 310 474 l 319 450 l 317 450 b 267 469 304 463 288 469 l 167 469 l 167 1 b 165 0 167 1 167 0 "},"S":{"ha":501,"x_min":0,"x_max":0,"o":"m 68 31 b 2 76 36 31 14 45 b 0 93 1 82 0 88 l 0 187 b 1 189 0 189 1 189 l 334 189 l 334 499 l 68 499 b 2 545 36 499 14 514 b 0 562 1 551 0 557 l 0 907 b 68 970 0 939 25 970 l 402 970 b 468 924 434 970 456 955 b 470 907 469 918 470 912 l 470 813 b 469 811 470 812 469 811 l 136 811 l 136 657 l 402 657 b 468 612 434 657 456 642 b 470 595 469 606 470 600 l 470 32 b 469 31 470 31 469 31 m 152 672 b 151 674 151 672 151 673 l 151 795 b 152 796 151 796 151 796 l 485 796 l 485 901 b 459 964 485 926 476 948 l 459 965 l 460 965 b 501 909 484 957 501 930 l 501 782 l 500 780 l 376 779 l 168 779 l 168 674 b 166 672 168 673 168 672 m 500 0 b 62 1 297 1 151 1 b 5 37 37 1 19 14 l 4 41 l 5 42 b 62 16 22 25 41 16 l 485 16 l 485 588 b 459 652 485 614 476 635 l 459 653 b 501 595 475 653 501 624 l 501 1 l 500 0 m 68 468 b 3 512 36 468 14 483 l 5 512 b 60 486 22 494 41 486 l 319 485 l 320 484 l 320 469 b 319 468 320 468 319 468 "},"T":{"ha":501,"x_min":0,"x_max":0,"o":"m 227 31 b 167 91 195 31 167 62 l 167 812 l 1 812 b 0 814 1 812 0 812 l 0 909 b 35 964 0 931 12 949 b 60 970 45 968 54 970 l 410 970 b 464 935 431 970 449 958 b 470 909 468 924 470 916 l 470 814 b 469 812 470 812 469 812 l 303 812 l 303 33 b 301 31 303 32 302 31 m 227 0 b 172 38 203 0 185 13 l 170 43 l 172 43 b 235 17 188 26 209 17 l 317 17 l 317 796 b 319 798 317 798 317 798 l 484 798 l 484 901 b 456 965 484 928 475 949 b 458 966 457 966 457 966 b 501 909 486 956 501 930 l 501 783 b 500 781 501 781 500 781 l 334 781 l 334 1 b 332 0 334 1 334 0 m 17 781 b 16 783 16 781 16 781 l 16 796 b 17 798 16 798 16 798 l 151 798 b 153 796 153 798 153 798 l 153 783 b 151 781 153 781 153 781 "},"U":{"ha":501,"x_min":0,"x_max":0,"o":"m 64 31 b 5 71 37 31 18 44 b 0 98 1 78 0 87 l 0 902 b 52 968 0 937 17 959 b 71 970 56 969 62 970 l 117 970 b 136 968 130 970 136 969 l 136 189 l 334 189 l 334 968 b 355 970 334 969 341 970 l 401 970 b 471 902 446 970 471 939 l 471 32 b 469 31 471 31 470 31 m 65 0 b 3 45 34 0 14 15 l 3 45 l 5 45 b 61 18 22 27 40 18 l 484 18 l 484 908 b 455 966 484 929 474 948 l 456 966 b 501 903 486 957 501 935 l 501 1 b 500 0 501 1 500 0 m 151 201 b 149 203 150 201 149 202 l 149 952 b 151 954 149 953 150 954 l 165 954 b 167 952 167 954 167 953 l 167 203 b 165 201 167 202 167 201 "},"V":{"ha":501,"x_min":0,"x_max":0,"o":"m 213 31 b 170 52 199 31 184 37 b 153 87 159 64 153 77 b 19 790 151 92 106 327 b 0 895 2 873 0 886 b 42 954 0 921 14 941 b 123 970 52 957 78 962 b 234 384 188 629 225 433 l 236 384 l 343 953 b 348 970 346 964 347 970 b 440 947 410 960 440 952 b 470 892 463 932 470 916 b 307 32 470 879 420 628 l 305 31 l 236 31 l 213 31 m 235 460 b 221 530 234 460 229 484 b 139 958 220 531 193 673 b 156 960 142 958 148 960 b 243 500 214 656 243 503 b 235 460 239 473 236 460 m 214 0 b 156 42 188 0 169 14 l 156 45 l 157 45 b 216 17 174 26 194 17 l 317 17 b 484 892 425 576 484 882 b 456 953 484 916 475 935 l 456 954 l 458 954 b 501 892 489 943 501 915 b 439 564 501 885 481 776 b 332 0 370 194 334 6 "},"W":{"ha":501,"x_min":0,"x_max":0,"o":"m 335 31 b 236 216 331 37 298 99 l 235 216 l 136 31 l 62 31 b 0 94 26 31 0 64 l 0 907 b 62 970 0 943 33 970 l 134 970 b 136 968 136 970 136 969 l 136 317 b 234 500 138 317 137 319 l 236 501 l 334 317 l 334 317 l 334 968 b 336 970 334 969 335 970 l 409 970 b 470 909 438 970 470 945 l 470 33 b 469 31 470 32 469 31 m 351 0 b 342 16 350 1 347 6 l 342 17 l 484 17 l 484 902 b 458 965 484 928 475 949 b 459 966 458 966 458 966 b 501 909 487 954 501 935 l 501 1 b 500 0 501 1 500 0 m 151 375 b 150 376 150 375 151 375 l 150 953 b 151 954 150 954 151 954 l 165 954 b 167 953 167 954 167 954 l 167 406 b 151 375 167 404 162 393 m 252 500 b 262 517 256 510 260 516 b 320 408 300 447 320 410 l 320 376 b 319 375 320 375 319 375 m 62 0 b 3 43 36 0 16 14 b 5 45 3 45 3 44 b 69 17 21 26 43 17 l 143 17 b 222 165 145 20 172 69 b 235 186 230 180 234 186 l 236 185 l 236 154 b 155 0 236 153 209 101 "},"X":{"ha":500,"x_min":0,"x_max":0,"o":"m 397 32 b 334 97 366 32 334 56 l 334 400 b 234 500 334 457 290 500 b 136 400 179 500 136 454 l 136 33 b 134 32 136 33 135 32 l 62 32 b 0 94 33 32 0 57 l 0 427 b 59 578 0 481 20 532 b 0 729 20 626 0 676 l 0 907 b 45 966 0 935 15 954 b 78 970 51 968 62 970 l 134 970 b 136 968 135 970 136 969 l 136 757 b 229 658 136 701 183 658 b 311 694 262 658 283 663 b 334 757 326 713 334 734 l 334 968 b 335 970 334 969 334 970 l 391 970 b 445 956 418 970 436 965 b 469 907 461 942 469 926 l 469 729 b 410 578 469 676 450 626 b 469 427 450 532 469 481 l 469 33 b 468 32 469 33 469 32 m 440 0 b 427 1 437 1 432 1 l 397 1 b 337 45 370 1 349 16 l 338 45 b 382 20 351 32 365 24 b 412 18 393 18 402 18 l 481 18 b 484 20 483 18 484 18 l 484 412 b 428 578 484 478 465 534 b 484 745 465 624 484 680 l 484 901 b 456 965 484 927 474 949 l 458 966 b 500 907 486 953 500 933 l 500 730 b 450 579 500 677 484 626 b 500 427 484 531 500 479 l 500 2 b 499 1 500 1 500 1 l 454 1 l 440 0 m 165 708 b 149 766 155 720 149 740 l 149 953 b 151 954 149 954 150 954 l 165 954 b 167 953 166 954 167 954 l 167 708 m 62 1 b 3 43 35 1 16 15 b 5 45 3 45 3 45 b 52 20 22 28 38 20 b 79 18 52 18 61 18 l 149 18 l 149 391 b 214 484 149 439 170 470 b 230 486 219 485 224 486 b 283 470 252 486 263 485 b 282 469 283 469 283 469 l 236 469 b 167 400 200 469 167 441 l 167 2 b 165 1 167 1 166 1 "},"Y":{"ha":501,"x_min":0,"x_max":0,"o":"m 229 31 b 167 93 199 31 167 56 l 167 510 b 0 730 62 543 0 638 l 0 908 b 45 968 0 935 15 955 b 62 970 51 969 56 970 l 134 970 b 136 968 136 970 136 969 l 136 763 b 210 661 136 712 161 677 l 235 657 b 334 763 287 657 334 697 l 334 968 b 336 970 334 969 335 970 l 408 970 b 468 924 435 970 455 955 b 470 908 469 919 470 913 l 470 730 b 382 551 470 663 441 603 b 303 510 351 528 327 517 l 303 33 b 301 31 303 32 302 31 m 229 0 b 171 41 203 0 184 14 l 170 43 l 172 43 b 236 17 188 26 210 17 l 317 17 l 317 499 l 343 511 b 484 745 423 551 484 626 l 484 901 b 456 966 484 928 475 949 l 458 966 b 501 908 487 954 501 935 l 501 731 b 419 543 501 661 474 598 b 334 488 389 515 361 497 l 334 1 b 332 0 334 1 334 0 m 165 707 b 150 754 155 722 150 738 l 150 953 b 151 954 150 954 151 954 l 165 954 b 167 953 167 954 167 954 l 167 709 b 165 707 167 708 167 707 "},"Z":{"ha":501,"x_min":0,"x_max":0,"o":"m 41 31 b 0 73 16 31 0 50 b 24 144 0 83 8 107 l 278 812 l 1 812 b 0 814 1 812 0 812 l 0 906 b 62 970 0 943 31 970 l 429 970 b 471 928 457 966 471 953 b 438 834 471 918 460 887 b 192 189 437 831 355 616 l 408 189 b 470 130 443 189 470 158 l 470 33 b 469 31 470 32 469 31 m 214 203 l 212 204 b 481 911 388 663 477 899 b 484 928 483 916 484 922 b 469 968 484 943 479 956 l 469 969 b 498 951 479 969 488 964 b 501 927 501 941 501 935 b 475 845 501 911 492 884 b 231 203 474 840 238 217 m 17 781 b 16 783 16 781 16 781 l 16 796 b 17 798 16 798 16 798 l 256 798 l 258 798 b 251 781 254 786 252 781 m 41 0 b 1 31 21 0 7 10 l 1 32 l 2 32 b 50 17 13 22 28 17 l 484 17 l 484 117 b 456 185 484 146 475 169 l 458 186 b 501 127 487 174 501 153 l 501 1 b 500 0 501 1 500 0 "},"[":{"ha":688,"x_min":0,"x_max":0,"o":"m 526 -164 b 349 -22 425 -164 349 -88 l 349 929 b 526 1071 349 995 425 1071 l 600 1071 l 600 1037 l 538 1037 b 434 952 485 1037 435 1007 l 434 -45 b 538 -130 435 -100 485 -130 l 600 -130 l 600 -164 "},"\\":{"ha":386,"x_min":0,"x_max":0,"o":"m 376 -34 l 9 972 l 63 972 l 430 -34 "},"]":{"ha":688,"x_min":0,"x_max":0,"o":"m 349 -164 l 349 -130 l 410 -130 b 514 -45 463 -130 513 -100 l 514 952 b 410 1037 513 1007 463 1037 l 349 1037 l 349 1071 l 422 1071 b 600 929 523 1071 600 995 l 600 -22 b 422 -164 599 -88 523 -164 "},"^":{"ha":688,"x_min":0,"x_max":0,"o":"m 387 597 l 225 880 l 64 597 l -12 597 l 206 977 l 244 977 l 463 597 "},"_":{"ha":694,"x_min":0,"x_max":0,"o":"m 0 -109 l 0 -68 l 694 -68 l 694 -109 "},"`":{"ha":694,"x_min":0,"x_max":0,"o":"m 410 732 l 186 869 b 144 924 158 887 144 905 b 194 972 144 952 163 972 b 259 932 212 972 229 963 l 456 732 "},"a":{"ha":501,"x_min":0,"x_max":0,"o":"m 405 31 b 335 94 361 31 335 60 l 335 499 l 136 499 l 136 32 b 135 31 136 31 136 31 l 68 31 b 1 83 33 31 11 48 l 0 98 l 0 902 b 52 969 0 937 18 959 l 68 970 l 403 970 b 470 918 437 970 460 952 l 471 902 l 471 32 b 469 31 471 31 470 31 m 401 0 b 338 43 364 0 343 23 l 340 43 b 398 17 357 26 376 17 l 484 17 l 484 907 b 458 965 484 928 475 948 l 458 966 b 501 909 473 966 501 940 l 500 1 b 499 0 500 1 500 0 m 335 811 l 136 811 l 136 657 l 335 657 m 152 671 b 151 672 151 671 151 671 l 151 796 b 152 798 151 798 151 798 l 319 798 b 321 796 320 798 321 798 l 321 783 b 319 781 321 781 320 781 l 167 781 l 167 672 b 165 671 167 671 167 671 m 69 0 b 5 43 28 0 7 26 l 6 43 b 65 17 23 26 43 17 l 151 17 l 151 484 b 152 486 151 485 151 486 l 319 486 b 321 484 320 486 321 485 l 321 470 b 319 469 321 469 320 469 l 167 469 l 167 1 b 165 0 167 1 167 0 "},"b":{"ha":501,"x_min":0,"x_max":0,"o":"m 60 31 b 0 93 32 31 0 57 l 0 908 b 47 968 0 936 16 956 l 60 970 l 410 970 b 470 908 438 970 470 944 l 470 682 b 435 579 470 648 458 614 l 435 578 b 470 475 458 544 470 509 l 470 33 b 469 31 470 32 469 31 m 62 0 b 3 43 35 0 16 14 b 5 45 3 45 3 44 b 73 17 20 26 42 17 l 484 17 l 484 460 b 452 578 484 507 473 545 l 452 579 b 484 697 473 612 484 651 l 484 901 b 458 965 484 927 475 949 l 458 966 b 501 908 484 958 501 934 l 501 683 b 472 578 501 649 492 614 b 501 474 492 543 501 509 l 501 1 b 500 0 501 1 500 0 m 267 657 b 334 726 309 657 334 681 l 334 812 l 136 812 l 136 657 l 267 657 m 151 671 b 150 673 151 671 150 672 l 150 796 b 151 798 150 798 151 798 l 319 798 b 320 796 319 798 320 798 l 320 783 b 319 781 320 781 319 781 l 167 781 l 167 673 b 165 671 167 672 167 671 m 334 432 b 267 500 334 475 311 500 l 136 500 l 136 189 l 334 189 m 151 203 b 150 205 151 203 150 203 l 150 484 b 151 486 150 485 151 486 l 275 486 b 319 451 294 486 309 474 l 319 450 l 317 449 b 267 469 306 462 289 469 l 167 469 l 167 205 b 165 203 167 203 167 203 "},"c":{"ha":501,"x_min":0,"x_max":0,"o":"m 61 31 b 0 92 32 31 0 56 l 0 909 b 61 970 0 938 25 970 l 409 970 b 470 909 438 970 470 945 l 470 657 b 469 656 470 656 469 656 l 336 656 b 334 657 334 656 334 656 l 334 812 l 136 812 l 136 189 l 334 189 l 334 284 b 395 345 334 313 359 345 l 469 345 b 470 344 469 345 470 345 l 470 33 b 469 31 470 32 469 31 m 351 625 b 350 626 350 625 350 625 l 350 640 b 351 642 350 642 351 642 l 484 642 l 484 902 b 458 965 484 928 475 949 b 459 966 458 966 458 966 b 501 909 487 954 501 935 l 501 626 b 500 625 501 625 500 625 m 151 203 b 150 205 151 203 150 203 l 150 796 b 151 798 150 798 151 798 l 319 798 b 320 796 319 798 320 798 l 320 783 b 319 781 320 781 319 781 l 167 781 l 167 205 b 165 203 167 203 167 203 m 61 0 b 3 42 35 0 16 14 b 5 43 3 44 3 43 b 68 17 20 26 41 17 l 484 17 l 484 328 b 486 330 484 329 485 330 l 500 330 b 501 328 500 330 501 329 l 501 1 b 500 0 501 1 500 0 "},"d":{"ha":501,"x_min":0,"x_max":0,"o":"m 60 31 b 0 92 28 31 0 61 l 0 909 b 60 970 0 941 30 970 l 286 970 b 436 890 345 970 395 943 b 470 785 458 856 470 821 l 470 33 b 469 31 470 32 469 31 m 60 0 b 7 35 39 0 21 12 b 3 43 5 39 3 42 l 5 45 b 68 17 20 26 42 17 l 484 17 l 484 773 b 395 949 484 848 454 907 l 395 951 l 396 951 b 492 840 442 928 475 890 b 501 785 498 820 501 802 l 501 1 b 500 0 501 1 500 0 m 332 189 b 334 191 334 189 334 189 l 334 719 b 250 812 334 786 297 812 l 138 812 b 136 810 136 812 136 811 l 136 191 b 138 189 136 189 136 189 l 332 189 m 151 203 b 150 205 151 203 150 203 l 150 796 b 151 798 150 798 151 798 l 257 798 b 315 758 283 798 302 785 l 316 754 l 316 753 l 315 753 b 250 781 300 772 277 781 l 169 781 b 167 779 168 781 167 780 l 167 205 b 165 203 167 203 167 203 "},"e":{"ha":501,"x_min":0,"x_max":0,"o":"m 77 31 b 0 94 20 31 0 63 l 0 905 b 47 968 0 935 16 956 b 65 970 52 969 58 970 l 407 970 b 468 924 435 970 455 955 b 471 891 470 918 471 907 l 471 813 b 469 811 471 812 470 811 l 136 811 l 136 657 l 335 657 b 336 656 336 657 336 656 l 336 500 b 335 499 336 499 336 499 l 136 499 l 136 189 l 469 189 b 471 187 470 189 471 189 l 471 32 b 469 31 471 31 470 31 m 151 671 b 150 672 151 671 150 671 l 150 796 b 151 798 150 798 151 798 l 484 798 l 484 903 b 456 965 484 928 475 948 l 458 966 b 501 907 487 954 501 935 l 501 783 b 500 781 501 781 500 781 l 167 781 l 167 672 b 165 671 167 671 167 671 m 151 202 b 150 204 151 202 150 203 l 150 484 b 151 486 150 485 151 486 l 319 486 b 321 484 320 486 321 485 l 321 470 b 319 469 321 469 320 469 l 167 469 l 167 204 b 165 202 167 203 167 202 m 63 0 b 3 43 35 0 16 14 l 5 45 b 66 17 21 26 42 17 l 484 17 l 484 172 b 486 174 484 173 485 174 l 500 174 b 501 172 500 173 501 173 l 501 1 b 500 0 501 1 500 0 "},"f":{"ha":501,"x_min":0,"x_max":0,"o":"m 77 31 b 0 94 20 31 0 63 l 0 905 b 47 968 0 935 16 956 b 65 970 52 969 58 970 l 407 970 b 468 924 435 970 455 955 b 471 891 470 918 471 907 l 471 813 b 469 811 471 812 470 811 l 136 811 l 136 657 l 335 657 b 336 656 336 657 336 656 l 336 500 b 335 499 336 499 336 499 l 136 499 l 136 32 b 135 31 136 31 136 31 m 151 671 b 150 672 151 671 150 671 l 150 796 b 151 798 150 798 151 798 l 484 798 l 484 903 b 456 965 484 928 475 948 l 458 966 b 501 907 487 954 501 935 l 501 783 b 500 781 501 781 500 781 l 167 781 l 167 672 b 165 671 167 671 167 671 m 63 0 b 3 43 35 0 16 14 l 5 45 b 66 17 21 26 42 17 l 150 17 l 150 484 b 151 486 150 485 151 486 l 319 486 b 321 484 320 486 321 485 l 321 470 b 319 469 321 469 320 469 l 167 469 l 167 1 b 165 0 167 1 167 0 "},"g":{"ha":503,"x_min":0,"x_max":0,"o":"m 62 31 b 6 68 37 31 19 43 b 0 108 2 74 0 87 l 0 892 b 18 949 0 921 6 940 b 62 969 31 962 45 969 l 411 969 b 471 906 442 969 471 943 l 471 813 b 469 812 471 812 470 812 l 136 812 l 136 189 l 334 189 l 334 499 l 235 499 b 234 501 235 499 234 500 l 234 580 b 249 634 234 607 239 625 b 296 657 262 650 278 657 l 469 657 b 471 655 470 657 471 656 l 471 33 b 469 31 471 32 470 31 m 151 203 b 150 204 151 203 150 203 l 150 796 b 151 798 150 797 151 798 l 484 798 l 484 910 b 458 964 484 929 475 947 l 458 966 b 502 906 483 958 502 935 l 502 895 b 503 867 502 880 502 871 l 502 836 l 502 782 b 500 781 502 781 501 781 l 168 781 l 168 204 b 166 203 168 203 168 203 m 62 0 b 5 40 37 0 18 14 b 4 43 4 41 4 42 l 6 43 b 68 17 20 26 41 17 l 484 17 l 484 671 l 307 671 b 239 644 277 671 254 662 l 238 644 l 238 646 b 267 680 244 662 254 674 b 326 689 273 686 292 689 l 501 688 l 502 686 l 502 1 b 500 0 502 1 501 0 "},"h":{"ha":501,"x_min":0,"x_max":0,"o":"m 397 31 b 336 77 369 31 349 47 b 334 104 335 85 334 94 l 334 500 l 136 500 l 136 33 b 135 31 136 32 136 31 l 62 31 b 2 77 35 31 15 46 b 0 93 1 82 0 87 l 0 908 b 45 968 0 935 15 955 b 62 970 51 969 56 970 l 135 970 b 136 968 136 970 136 969 l 136 657 l 334 657 l 334 968 b 336 970 334 969 335 970 l 408 970 b 468 924 435 970 455 955 b 470 908 469 919 470 913 l 470 33 b 469 31 470 32 469 31 m 397 0 b 340 38 372 0 353 13 l 338 43 l 340 45 b 403 17 355 26 376 17 l 484 17 l 484 902 b 458 965 484 928 475 949 l 458 966 b 501 908 473 965 501 939 l 501 1 b 500 0 501 1 500 0 m 151 671 b 150 673 151 671 150 672 l 150 953 b 151 954 150 954 151 954 l 166 954 b 168 953 168 954 168 954 l 168 673 b 166 671 168 672 168 671 m 62 0 b 4 41 37 0 17 14 l 3 43 l 5 43 b 68 17 21 26 42 17 l 150 17 l 150 484 b 151 486 150 485 151 486 l 319 486 b 321 484 320 486 321 485 l 321 470 b 319 469 321 469 320 469 l 168 469 l 168 1 b 166 0 168 1 168 0 "},"i":{"ha":167,"x_min":0,"x_max":0,"o":"m 61 31 b 0 92 32 31 0 56 l 0 907 b 61 968 0 937 24 968 b 134 924 97 968 117 964 b 136 907 135 918 136 913 l 136 33 b 134 31 136 32 135 31 m 61 0 b 4 41 35 0 16 14 b 3 43 3 41 3 43 l 5 43 b 68 17 20 26 41 17 l 150 17 l 150 901 b 123 964 150 927 141 948 l 123 965 l 124 965 b 167 907 152 956 167 932 l 167 1 b 165 0 167 1 166 0 "},"j":{"ha":501,"x_min":0,"x_max":0,"o":"m 62 31 b 0 94 26 31 0 64 l 0 284 b 61 345 0 313 25 345 l 134 345 b 136 344 136 345 136 345 l 136 189 l 334 189 l 334 968 b 336 970 334 969 335 970 l 409 970 b 470 909 438 970 470 945 l 470 33 b 469 31 470 32 469 31 m 62 0 b 3 43 36 0 16 14 b 5 45 3 45 3 44 b 69 17 21 26 42 17 l 484 17 l 484 902 b 458 965 484 928 475 949 l 458 966 l 458 966 b 501 909 486 957 501 933 l 501 1 b 500 0 501 1 500 0 m 151 203 b 150 205 151 203 150 203 l 150 328 b 151 330 150 329 151 330 l 165 330 b 167 328 167 330 167 329 l 167 205 b 165 203 167 203 167 203 "},"k":{"ha":501,"x_min":0,"x_max":0,"o":"m 394 31 b 334 102 366 31 334 53 l 334 432 b 270 500 334 475 305 500 l 136 500 l 136 33 b 134 31 136 32 136 31 l 62 31 b 0 93 27 31 0 62 l 0 908 b 62 970 0 937 25 970 l 134 970 b 136 968 136 970 136 969 l 136 659 b 138 657 136 658 136 657 l 265 657 b 332 705 300 657 323 673 b 334 726 334 708 334 715 l 334 968 b 336 970 334 969 335 970 l 408 970 b 470 908 437 970 470 945 l 470 682 b 435 579 470 648 458 614 l 435 578 b 470 473 458 544 470 509 l 470 33 b 469 31 470 32 469 31 m 397 0 b 340 38 372 0 353 13 l 338 43 l 340 45 b 405 17 354 26 376 17 l 484 17 l 484 460 b 452 578 484 507 473 546 l 452 579 b 484 697 473 612 484 651 l 484 901 b 458 965 484 928 475 949 l 458 966 b 501 908 485 958 501 932 l 501 683 b 472 578 501 649 492 614 b 501 473 492 544 501 509 l 501 1 b 500 0 501 1 500 0 m 151 671 b 150 673 151 671 150 672 l 150 953 b 151 954 150 954 151 954 l 165 954 b 167 953 167 954 167 954 l 167 673 b 165 671 167 672 167 671 m 62 0 b 3 43 35 0 15 14 l 5 45 b 77 17 18 27 37 17 l 149 17 b 150 19 149 17 150 18 l 150 484 b 151 486 150 485 151 486 l 275 486 b 319 450 295 486 310 474 l 319 450 l 317 450 b 267 469 304 463 288 469 l 167 469 l 167 1 b 165 0 167 1 167 0 "},"l":{"ha":501,"x_min":0,"x_max":0,"o":"m 1 31 b 0 32 1 31 0 31 l 0 908 b 46 968 0 936 16 956 b 67 970 52 969 59 970 l 134 970 b 136 968 136 970 136 969 l 136 189 l 404 189 b 470 127 444 189 470 159 l 470 32 b 469 31 470 31 469 31 m 151 201 b 149 203 150 201 149 202 l 149 952 b 151 954 149 953 150 954 l 165 954 b 166 952 165 954 166 953 l 166 203 b 165 201 166 202 165 201 m 18 0 b 16 1 17 0 16 1 l 16 16 b 18 18 16 18 17 18 l 484 18 l 484 120 b 456 185 484 147 475 168 l 458 186 b 487 167 464 185 474 179 b 501 128 496 155 501 142 l 501 1 b 500 0 501 1 500 0 "},"m":{"ha":501,"x_min":0,"x_max":0,"o":"m 401 31 b 334 92 365 31 334 56 l 334 683 b 239 505 333 683 301 623 b 235 500 237 502 235 500 b 136 683 227 512 138 680 l 136 32 b 134 31 136 31 136 31 l 68 31 b 1 83 33 31 10 48 l 0 94 l 0 909 b 68 970 0 936 20 970 l 134 970 b 156 932 135 970 142 958 l 234 784 l 236 784 b 335 970 300 905 333 967 l 404 970 b 468 925 435 970 456 955 b 470 910 469 919 470 914 l 470 32 b 469 31 470 31 469 31 m 233 814 b 151 969 231 820 203 871 l 153 970 l 170 970 b 236 847 174 965 195 924 l 236 814 m 403 0 b 353 17 378 0 361 5 b 336 45 343 28 338 37 l 338 45 b 396 18 355 27 374 18 l 484 18 l 484 902 b 455 966 484 929 474 950 l 455 966 b 492 941 465 966 475 960 b 501 908 498 928 501 918 l 501 1 b 500 0 501 1 500 0 m 68 0 b 2 45 33 0 14 14 l 4 46 b 63 18 21 27 41 18 l 149 18 l 149 629 l 151 629 l 228 484 l 220 467 l 218 467 b 165 564 188 524 170 557 l 165 1 b 164 0 165 1 165 0 "},"n":{"ha":501,"x_min":0,"x_max":0,"o":"m 394 31 b 334 92 363 31 334 61 l 334 500 l 136 747 l 136 33 b 134 31 136 32 136 31 l 60 31 b 0 92 28 31 0 61 l 0 909 b 60 970 0 941 30 970 l 135 970 l 334 723 l 334 968 b 336 970 334 969 335 970 l 410 970 b 470 909 441 970 470 940 l 470 33 b 469 31 470 32 469 31 m 154 969 l 155 970 l 175 970 b 320 789 178 967 227 907 l 320 765 b 319 764 320 764 319 764 m 394 0 b 341 34 374 0 356 12 l 337 43 l 339 45 b 403 17 355 26 376 17 l 484 17 l 484 901 b 456 965 484 928 475 949 b 458 966 457 966 457 966 b 495 935 474 961 486 950 b 501 909 499 925 501 916 l 501 1 b 500 0 501 1 500 0 m 60 0 b 7 34 39 0 22 12 l 3 43 l 5 45 b 68 17 20 26 42 17 l 150 17 l 150 705 b 151 706 150 705 151 706 l 304 515 l 304 490 b 303 489 304 490 304 489 b 167 657 214 600 168 656 l 167 1 b 165 0 167 1 167 0 "},"o":{"ha":501,"x_min":0,"x_max":0,"o":"m 62 31 b 0 93 33 31 0 56 l 0 908 b 62 970 0 937 25 970 l 408 970 b 470 908 437 970 470 945 l 470 93 b 408 31 470 64 445 31 m 62 0 b 3 42 36 0 16 14 l 3 46 l 4 46 b 66 18 20 27 41 18 l 406 18 b 484 98 446 18 484 47 l 484 903 b 455 966 484 929 474 950 l 455 966 b 501 908 472 966 501 941 l 501 92 b 410 0 501 42 457 0 m 334 810 b 332 812 334 812 334 812 l 138 812 b 136 810 136 812 136 811 l 136 189 l 334 189 m 151 202 b 149 204 150 202 149 203 l 149 798 b 151 799 149 798 150 799 l 319 799 b 321 798 320 799 321 798 l 321 783 b 319 781 321 781 320 781 l 169 781 b 167 779 168 781 167 780 l 167 204 b 165 202 167 203 167 202 "},"p":{"ha":502,"x_min":0,"x_max":0,"o":"m 64 32 b 3 77 35 32 15 47 b 0 100 1 83 0 90 l 0 901 b 48 968 0 935 16 957 b 68 969 56 968 62 969 l 402 969 b 469 921 436 969 458 953 l 470 905 l 470 565 b 425 503 470 535 455 514 b 404 499 419 500 412 499 l 136 499 l 136 33 b 135 32 136 33 136 32 m 80 1 b 5 41 42 1 21 5 l 5 43 l 5 43 b 62 18 22 26 41 18 l 151 18 l 151 484 b 152 486 151 485 151 486 l 407 486 b 484 562 447 486 484 517 l 484 907 b 459 964 484 928 475 947 l 459 965 l 460 965 b 501 891 489 954 501 934 l 502 560 b 399 467 502 515 466 467 l 168 467 l 168 1 l 168 0 m 334 811 l 136 811 l 136 658 l 334 658 m 152 671 b 151 673 151 671 151 672 l 151 795 b 152 797 151 796 151 797 l 318 797 b 319 795 319 797 319 796 l 319 781 b 318 779 319 779 319 779 l 168 779 l 168 673 b 167 671 168 672 168 671 "},"q":{"ha":635,"x_min":0,"x_max":0,"o":"m 530 31 b 474 68 506 31 487 43 b 469 81 470 76 473 81 b 442 41 469 70 460 57 b 408 31 431 35 419 31 l 62 31 b 0 93 26 31 0 64 l 0 908 b 62 970 0 938 25 970 l 408 970 b 468 924 435 970 455 955 b 470 908 469 919 470 913 l 470 255 b 515 191 470 223 485 201 b 533 189 520 190 526 189 l 603 189 b 604 187 604 189 604 189 l 604 33 b 603 31 604 32 604 31 m 530 0 b 472 41 505 0 485 14 l 471 43 l 473 43 b 537 17 489 26 511 17 l 618 17 l 618 203 l 528 203 b 486 237 510 203 496 214 b 484 248 484 241 484 245 l 484 901 b 458 965 484 927 475 949 l 458 966 b 501 908 485 958 501 932 l 501 252 b 533 220 503 231 514 220 l 634 220 b 635 218 635 220 635 220 l 635 1 b 634 0 635 1 635 0 m 334 810 b 332 812 334 812 334 812 l 136 812 l 136 189 l 334 189 m 151 203 b 150 205 151 203 150 203 l 150 796 b 151 798 150 798 151 798 l 319 798 b 320 796 319 798 320 798 l 320 783 b 319 781 320 781 319 781 l 167 781 l 167 205 b 165 203 167 203 167 203 m 62 0 b 4 41 36 0 17 14 l 3 43 l 5 43 b 68 17 21 26 42 17 l 401 17 b 466 45 428 17 450 26 l 467 45 b 439 8 467 35 458 22 b 410 0 427 3 418 0 "},"r":{"ha":501,"x_min":0,"x_max":0,"o":"m 394 31 b 334 102 366 31 334 53 l 334 432 b 270 500 334 475 305 500 l 136 500 l 136 33 b 134 31 136 32 136 31 l 62 31 b 0 93 27 31 0 62 l 0 908 b 62 970 0 937 25 970 l 408 970 b 470 908 437 970 470 945 l 470 682 b 435 579 470 648 458 614 l 435 578 b 470 473 458 544 470 509 l 470 33 b 469 31 470 32 469 31 m 397 0 b 340 38 372 0 353 13 l 338 43 l 340 45 b 405 17 354 26 376 17 l 484 17 l 484 460 b 452 578 484 507 473 546 l 452 579 b 484 697 473 612 484 651 l 484 901 b 458 965 484 928 475 949 l 458 966 b 501 908 485 958 501 932 l 501 683 b 472 578 501 649 492 614 b 501 473 492 544 501 509 l 501 1 b 500 0 501 1 500 0 m 265 657 b 332 705 300 657 323 673 b 334 726 334 708 334 715 l 334 810 b 332 812 334 812 334 812 l 138 812 b 136 810 136 812 136 811 l 136 659 b 138 657 136 658 136 657 l 265 657 m 151 671 b 150 673 151 671 150 672 l 150 796 b 151 798 150 798 151 798 l 319 798 b 320 796 319 798 320 798 l 320 782 b 319 780 320 781 319 780 l 167 780 l 167 673 b 165 671 167 672 167 671 m 62 0 b 3 43 35 0 15 14 l 5 45 b 77 17 18 27 37 17 l 149 17 b 150 19 149 17 150 18 l 150 484 b 151 486 150 485 151 486 l 275 486 b 319 450 295 486 310 474 l 319 450 l 317 450 b 267 469 304 463 288 469 l 167 469 l 167 1 b 165 0 167 1 167 0 "},"s":{"ha":501,"x_min":0,"x_max":0,"o":"m 68 31 b 2 76 36 31 14 45 b 0 93 1 82 0 88 l 0 187 b 1 189 0 189 1 189 l 334 189 l 334 499 l 68 499 b 2 545 36 499 14 514 b 0 562 1 551 0 557 l 0 907 b 68 970 0 939 25 970 l 402 970 b 468 924 434 970 456 955 b 470 907 469 918 470 912 l 470 813 b 469 811 470 812 469 811 l 136 811 l 136 657 l 402 657 b 468 612 434 657 456 642 b 470 595 469 606 470 600 l 470 32 b 469 31 470 31 469 31 m 152 672 b 151 674 151 672 151 673 l 151 795 b 152 796 151 796 151 796 l 485 796 l 485 901 b 459 964 485 926 476 948 l 459 965 l 460 965 b 501 909 484 957 501 930 l 501 782 l 500 780 l 376 779 l 168 779 l 168 674 b 166 672 168 673 168 672 m 500 0 b 62 1 297 1 151 1 b 5 37 37 1 19 14 l 4 41 l 5 42 b 62 16 22 25 41 16 l 485 16 l 485 588 b 459 652 485 614 476 635 l 459 653 b 501 595 475 653 501 624 l 501 1 l 500 0 m 68 468 b 3 512 36 468 14 483 l 5 512 b 60 486 22 494 41 486 l 319 485 l 320 484 l 320 469 b 319 468 320 468 319 468 "},"t":{"ha":501,"x_min":0,"x_max":0,"o":"m 227 31 b 167 91 195 31 167 62 l 167 812 l 1 812 b 0 814 1 812 0 812 l 0 909 b 35 964 0 931 12 949 b 60 970 45 968 54 970 l 410 970 b 464 935 431 970 449 958 b 470 909 468 924 470 916 l 470 814 b 469 812 470 812 469 812 l 303 812 l 303 33 b 301 31 303 32 302 31 m 227 0 b 172 38 203 0 185 13 l 170 43 l 172 43 b 235 17 188 26 209 17 l 317 17 l 317 796 b 319 798 317 798 317 798 l 484 798 l 484 901 b 456 965 484 928 475 949 b 458 966 457 966 457 966 b 501 909 486 956 501 930 l 501 783 b 500 781 501 781 500 781 l 334 781 l 334 1 b 332 0 334 1 334 0 m 17 781 b 16 783 16 781 16 781 l 16 796 b 17 798 16 798 16 798 l 151 798 b 153 796 153 798 153 798 l 153 783 b 151 781 153 781 153 781 "},"u":{"ha":501,"x_min":0,"x_max":0,"o":"m 64 31 b 5 71 37 31 18 44 b 0 98 1 78 0 87 l 0 902 b 52 968 0 937 17 959 b 71 970 56 969 62 970 l 117 970 b 136 968 130 970 136 969 l 136 189 l 334 189 l 334 968 b 355 970 334 969 341 970 l 401 970 b 471 902 446 970 471 939 l 471 32 b 469 31 471 31 470 31 m 65 0 b 3 45 34 0 14 15 l 3 45 l 5 45 b 61 18 22 27 40 18 l 484 18 l 484 908 b 455 966 484 929 474 948 l 456 966 b 501 903 486 957 501 935 l 501 1 b 500 0 501 1 500 0 m 151 201 b 149 203 150 201 149 202 l 149 952 b 151 954 149 953 150 954 l 165 954 b 167 952 167 954 167 953 l 167 203 b 165 201 167 202 167 201 "},"v":{"ha":501,"x_min":0,"x_max":0,"o":"m 213 31 b 170 52 199 31 184 37 b 153 87 159 64 153 77 b 19 790 151 92 106 327 b 0 895 2 873 0 886 b 42 954 0 921 14 941 b 123 970 52 957 78 962 b 234 384 188 629 225 433 l 236 384 l 343 953 b 348 970 346 964 347 970 b 440 947 410 960 440 952 b 470 892 463 932 470 916 b 307 32 470 879 420 628 l 305 31 l 236 31 l 213 31 m 235 460 b 221 530 234 460 229 484 b 139 958 220 531 193 673 b 156 960 142 958 148 960 b 243 500 214 656 243 503 b 235 460 239 473 236 460 m 214 0 b 156 42 188 0 169 14 l 156 45 l 157 45 b 216 17 174 26 194 17 l 317 17 b 484 892 425 576 484 882 b 456 953 484 916 475 935 l 456 954 l 458 954 b 501 892 489 943 501 915 b 439 564 501 885 481 776 b 332 0 370 194 334 6 "},"w":{"ha":501,"x_min":0,"x_max":0,"o":"m 335 31 b 236 216 331 37 298 99 l 235 216 l 136 31 l 62 31 b 0 94 26 31 0 64 l 0 907 b 62 970 0 943 33 970 l 134 970 b 136 968 136 970 136 969 l 136 317 b 234 500 138 317 137 319 l 236 501 l 334 317 l 334 317 l 334 968 b 336 970 334 969 335 970 l 409 970 b 470 909 438 970 470 945 l 470 33 b 469 31 470 32 469 31 m 351 0 b 342 16 350 1 347 6 l 342 17 l 484 17 l 484 902 b 458 965 484 928 475 949 b 459 966 458 966 458 966 b 501 909 487 954 501 935 l 501 1 b 500 0 501 1 500 0 m 151 375 b 150 376 150 375 151 375 l 150 953 b 151 954 150 954 151 954 l 165 954 b 167 953 167 954 167 954 l 167 406 b 151 375 167 404 162 393 m 252 500 b 262 517 256 510 260 516 b 320 408 300 447 320 410 l 320 376 b 319 375 320 375 319 375 m 62 0 b 3 43 36 0 16 14 b 5 45 3 45 3 44 b 69 17 21 26 43 17 l 143 17 b 222 165 145 20 172 69 b 235 186 230 180 234 186 l 236 185 l 236 154 b 155 0 236 153 209 101 "},"x":{"ha":500,"x_min":0,"x_max":0,"o":"m 397 32 b 334 97 366 32 334 56 l 334 400 b 234 500 334 457 290 500 b 136 400 179 500 136 454 l 136 33 b 134 32 136 33 135 32 l 62 32 b 0 94 33 32 0 57 l 0 427 b 59 578 0 481 20 532 b 0 729 20 626 0 676 l 0 907 b 45 966 0 935 15 954 b 78 970 51 968 62 970 l 134 970 b 136 968 135 970 136 969 l 136 757 b 229 658 136 701 183 658 b 311 694 262 658 283 663 b 334 757 326 713 334 734 l 334 968 b 335 970 334 969 334 970 l 391 970 b 445 956 418 970 436 965 b 469 907 461 942 469 926 l 469 729 b 410 578 469 676 450 626 b 469 427 450 532 469 481 l 469 33 b 468 32 469 33 469 32 m 440 0 b 427 1 437 1 432 1 l 397 1 b 337 45 370 1 349 16 l 338 45 b 382 20 351 32 365 24 b 412 18 393 18 402 18 l 481 18 b 484 20 483 18 484 18 l 484 412 b 428 578 484 478 465 534 b 484 745 465 624 484 680 l 484 901 b 456 965 484 927 474 949 l 458 966 b 500 907 486 953 500 933 l 500 730 b 450 579 500 677 484 626 b 500 427 484 531 500 479 l 500 2 b 499 1 500 1 500 1 l 454 1 l 440 0 m 165 708 b 149 766 155 720 149 740 l 149 953 b 151 954 149 954 150 954 l 165 954 b 167 953 166 954 167 954 l 167 708 m 62 1 b 3 43 35 1 16 15 b 5 45 3 45 3 45 b 52 20 22 28 38 20 b 79 18 52 18 61 18 l 149 18 l 149 391 b 214 484 149 439 170 470 b 230 486 219 485 224 486 b 283 470 252 486 263 485 b 282 469 283 469 283 469 l 236 469 b 167 400 200 469 167 441 l 167 2 b 165 1 167 1 166 1 "},"y":{"ha":501,"x_min":0,"x_max":0,"o":"m 229 31 b 167 93 199 31 167 56 l 167 510 b 0 730 62 543 0 638 l 0 908 b 45 968 0 935 15 955 b 62 970 51 969 56 970 l 134 970 b 136 968 136 970 136 969 l 136 763 b 210 661 136 712 161 677 l 235 657 b 334 763 287 657 334 697 l 334 968 b 336 970 334 969 335 970 l 408 970 b 468 924 435 970 455 955 b 470 908 469 919 470 913 l 470 730 b 382 551 470 663 441 603 b 303 510 351 528 327 517 l 303 33 b 301 31 303 32 302 31 m 229 0 b 171 41 203 0 184 14 l 170 43 l 172 43 b 236 17 188 26 210 17 l 317 17 l 317 499 l 343 511 b 484 745 423 551 484 626 l 484 901 b 456 966 484 928 475 949 l 458 966 b 501 908 487 954 501 935 l 501 731 b 419 543 501 661 474 598 b 334 488 389 515 361 497 l 334 1 b 332 0 334 1 334 0 m 165 707 b 150 754 155 722 150 738 l 150 953 b 151 954 150 954 151 954 l 165 954 b 167 953 167 954 167 954 l 167 709 b 165 707 167 708 167 707 "},"z":{"ha":501,"x_min":0,"x_max":0,"o":"m 41 31 b 0 73 16 31 0 50 b 24 144 0 83 8 107 l 278 812 l 1 812 b 0 814 1 812 0 812 l 0 906 b 62 970 0 943 31 970 l 429 970 b 471 928 457 966 471 953 b 438 834 471 918 460 887 b 192 189 437 831 355 616 l 408 189 b 470 130 443 189 470 158 l 470 33 b 469 31 470 32 469 31 m 214 203 l 212 204 b 481 911 388 663 477 899 b 484 928 483 916 484 922 b 469 968 484 943 479 956 l 469 969 b 498 951 479 969 488 964 b 501 927 501 941 501 935 b 475 845 501 911 492 884 b 231 203 474 840 238 217 m 17 781 b 16 783 16 781 16 781 l 16 796 b 17 798 16 798 16 798 l 256 798 l 258 798 b 251 781 254 786 252 781 m 41 0 b 1 31 21 0 7 10 l 1 32 l 2 32 b 50 17 13 22 28 17 l 484 17 l 484 117 b 456 185 484 146 475 169 l 458 186 b 501 127 487 174 501 153 l 501 1 b 500 0 501 1 500 0 "},"{":{"ha":688,"x_min":0,"x_max":0,"o":"m 526 -164 b 349 -22 425 -164 349 -88 l 349 295 b 314 385 349 325 337 355 b 163 433 291 414 241 431 l 163 473 b 314 522 241 475 291 492 b 349 612 337 551 349 581 l 349 929 b 526 1071 349 995 425 1071 l 600 1071 l 600 1037 l 538 1037 b 434 952 485 1037 435 1007 l 434 613 b 296 454 434 538 373 454 l 296 452 b 435 294 373 452 435 368 l 434 -45 b 538 -130 435 -100 485 -130 l 600 -130 l 600 -164 "},"|":{"ha":688,"x_min":0,"x_max":0,"o":"m 290 -283 l 290 1069 l 398 1069 l 398 -283 "},"}":{"ha":688,"x_min":0,"x_max":0,"o":"m 88 -164 l 88 -130 l 149 -130 b 254 -45 203 -130 253 -100 l 253 294 b 392 452 253 368 314 452 l 392 454 b 254 613 315 454 254 538 l 254 952 b 149 1037 253 1007 203 1037 l 88 1037 l 88 1071 l 161 1071 b 339 929 262 1071 339 995 l 339 612 b 374 522 339 581 351 551 b 525 473 397 492 447 475 l 525 433 b 374 385 447 431 397 414 b 339 295 351 355 339 325 l 339 -22 b 161 -164 338 -88 262 -164 "},"~":{"ha":688,"x_min":0,"x_max":0,"o":"m 64 483 b 224 568 120 547 174 568 b 348 534 254 568 294 557 b 465 500 401 512 439 500 b 626 595 513 500 563 523 l 626 490 b 465 406 570 427 517 406 b 345 439 437 406 397 417 b 224 472 291 461 251 472 b 64 377 176 472 127 450 "},"":{"ha":456,"x_min":0,"x_max":0,"o":""},"":{"ha":772,"x_min":0,"x_max":0,"o":""},"":{"ha":688,"x_min":0,"x_max":0,"o":"m 77 0 l 78 34 b 205 317 163 142 205 236 b 161 456 205 352 190 399 l 52 456 l 52 497 l 143 497 b 104 669 117 562 104 619 b 188 904 104 771 132 849 b 395 986 243 959 313 986 b 599 954 496 986 599 972 l 599 844 l 573 844 b 399 935 568 902 493 935 b 212 703 309 935 212 842 b 248 497 212 628 224 559 l 492 497 l 492 456 l 266 456 b 311 322 296 406 311 361 b 201 68 311 250 274 165 l 473 68 b 602 157 532 68 575 98 l 635 157 l 565 0 "},"":{"ha":688,"x_min":0,"x_max":0,"o":"m 344 336 b 495 486 427 336 495 407 b 343 637 495 568 425 637 b 193 486 260 637 193 563 b 344 336 193 402 265 336 m 470 305 b 344 264 433 279 388 264 b 217 305 298 264 251 281 l 137 225 l 83 280 l 163 359 b 122 486 138 395 122 442 b 163 612 122 531 138 578 l 83 692 l 137 747 l 217 667 b 345 708 252 691 300 708 b 470 667 387 708 433 692 l 550 747 l 604 692 l 525 613 b 566 486 550 576 566 532 b 525 359 566 441 550 397 l 604 280 l 550 225 "},"":{"ha":688,"x_min":0,"x_max":0,"o":"m 180 0 l 180 34 l 236 34 b 297 193 277 34 297 87 l 297 382 l 125 382 l 125 423 l 297 423 l 297 463 l 296 464 l 125 464 l 125 505 l 275 505 l 113 822 b 7 939 77 900 42 939 l -15 939 l -15 972 l 280 972 l 280 939 l 223 939 b 184 903 197 939 184 926 b 209 823 184 884 193 857 l 357 515 l 511 823 b 536 907 528 860 536 888 b 506 939 536 928 526 939 l 448 939 l 448 972 l 703 972 l 703 939 l 681 939 b 566 823 640 939 602 900 l 410 505 l 566 505 l 566 464 l 392 464 l 392 423 l 566 423 l 566 382 l 392 382 l 392 193 b 452 34 392 87 412 34 l 509 34 l 509 0 "},"":{"ha":688,"x_min":0,"x_max":0,"o":"m 290 -283 l 290 252 l 398 252 l 398 -283 m 290 535 l 290 1070 l 398 1070 l 398 535 "},"":{"ha":688,"x_min":0,"x_max":0,"o":"m 370 218 b 485 366 439 237 485 294 l 484 373 l 483 373 b 318 497 479 430 412 497 b 201 387 247 497 201 453 b 370 218 201 332 258 275 m 316 -281 l 307 -282 b 129 -243 250 -282 129 -267 l 129 -111 l 163 -111 b 316 -235 168 -183 241 -230 b 490 -76 416 -229 490 -171 b 276 111 490 -20 419 43 b 121 324 169 167 121 227 b 297 541 121 447 191 523 b 115 766 169 602 115 661 b 322 985 115 899 196 979 b 336 986 327 986 330 986 b 512 947 398 986 512 970 l 512 815 l 477 815 b 312 939 473 889 395 939 b 195 829 241 939 195 895 b 390 647 195 770 260 709 b 566 422 519 589 566 526 b 498 231 566 345 543 281 b 431 188 477 214 454 199 b 572 -19 534 134 572 75 b 504 -211 572 -96 549 -160 b 316 -282 448 -257 385 -281 "},"":{"ha":694,"x_min":0,"x_max":0,"o":"m 216 774 b 199 783 210 774 204 777 l 148 841 b 142 857 144 846 142 852 b 151 874 142 863 145 868 l 199 923 b 216 931 205 928 211 931 b 235 922 221 931 227 928 l 281 872 b 288 855 286 866 288 860 b 280 837 288 849 286 843 l 233 786 b 216 774 226 779 220 774 m 464 774 b 447 783 458 774 452 777 l 395 842 b 389 857 391 846 389 852 b 399 874 389 863 393 868 l 447 923 b 464 931 453 928 458 931 b 482 922 469 931 475 928 l 529 872 b 536 855 534 866 536 860 b 528 838 536 849 533 844 l 481 786 b 464 774 473 779 467 774 "},"":{"ha":1135,"x_min":0,"x_max":0,"o":"m 587 151 b 281 323 462 151 341 214 b 238 488 252 376 238 431 b 410 779 238 597 294 715 b 582 823 465 808 522 823 b 684 805 617 823 650 817 l 690 804 b 708 825 699 804 705 811 l 736 825 l 785 690 l 755 690 b 557 792 706 779 635 792 b 361 624 482 785 400 732 b 339 499 347 583 339 542 b 489 210 339 376 398 259 b 602 182 522 192 559 182 b 781 305 718 182 781 243 l 817 305 l 817 237 b 587 151 817 197 724 151 m 568 28 b 892 163 694 28 802 73 b 1027 488 982 253 1027 361 b 892 812 1027 614 982 722 b 568 947 802 902 694 947 b 243 812 441 947 333 902 b 109 488 153 722 109 614 b 243 163 109 361 153 253 b 568 28 333 73 441 28 m 568 -12 b 214 134 430 -12 312 37 b 68 488 117 232 68 350 b 214 841 68 625 117 743 b 568 987 312 939 430 987 b 921 841 705 987 823 939 b 1067 488 1019 743 1067 625 b 921 134 1067 350 1019 232 b 568 -12 823 37 705 -12 "},"":{"ha":439,"x_min":0,"x_max":0,"o":""},"":{"ha":640,"x_min":0,"x_max":0,"o":"m 350 119 l 118 325 l 350 530 l 359 530 l 359 505 l 220 325 l 359 144 l 359 119 m 562 119 l 330 325 l 562 530 l 572 530 l 572 505 l 433 325 l 572 144 l 572 119 "},"":{"ha":688,"x_min":0,"x_max":0,"o":"m 562 186 l 562 452 l 59 452 l 59 520 l 629 520 l 629 187 l 628 186 "},"":{"ha":1135,"x_min":0,"x_max":0,"o":"m 613 182 l 613 216 l 644 216 b 664 231 657 216 664 221 b 617 309 664 244 648 270 l 566 378 b 509 406 547 378 528 387 l 509 298 b 534 216 509 243 517 216 l 570 216 l 570 182 l 355 182 l 355 216 l 385 216 b 410 298 401 216 410 243 l 410 663 b 385 745 410 718 401 745 l 355 745 l 355 793 l 597 793 b 766 584 692 792 766 701 b 667 391 766 513 733 448 l 723 312 b 825 216 768 248 802 216 l 848 216 l 848 182 m 591 416 b 673 578 628 420 673 501 b 572 745 669 669 630 745 l 509 745 l 509 492 b 591 416 510 441 553 416 m 568 28 b 892 163 694 28 802 73 b 1027 488 982 253 1027 361 b 892 812 1027 614 982 722 b 568 947 802 902 694 947 b 243 812 441 947 333 902 b 109 488 153 722 109 614 b 243 163 109 361 153 253 b 568 28 333 73 441 28 m 568 -12 b 214 134 430 -12 312 37 b 68 488 117 232 68 350 b 214 841 68 625 117 743 b 568 987 312 939 430 987 b 921 841 705 987 823 939 b 1067 488 1019 743 1067 625 b 921 134 1067 350 1019 232 b 568 -12 823 37 705 -12 "},"":{"ha":694,"x_min":0,"x_max":0,"o":"m 172 810 l 172 895 l 522 895 l 522 810 "},"":{"ha":457,"x_min":0,"x_max":0,"o":"m 230 648 b 370 789 309 648 370 709 b 230 930 370 868 309 930 b 88 789 153 930 88 869 b 230 648 88 709 151 648 m 229 601 b 41 789 121 601 41 685 b 230 978 41 895 124 978 b 418 789 336 978 418 893 b 229 601 418 686 334 601 "},"":{"ha":688,"x_min":0,"x_max":0,"o":"m 296 188 l 296 439 l 59 439 l 59 534 l 296 534 l 296 784 l 297 785 l 391 785 l 391 534 l 628 534 l 629 533 l 629 439 l 391 439 l 391 188 m 59 0 l 59 95 l 628 95 l 629 94 l 629 0 "},"":{"ha":688,"x_min":0,"x_max":0,"o":""},"":{"ha":688,"x_min":0,"x_max":0,"o":""},"":{"ha":694,"x_min":0,"x_max":0,"o":"m 214 731 l 412 932 b 477 972 442 963 458 972 b 527 924 507 972 527 952 b 485 869 527 905 513 887 l 261 731 "},"":{"ha":800,"x_min":0,"x_max":0,"o":""},"":{"ha":694,"x_min":0,"x_max":0,"o":"m 488 0 l 488 926 l 376 926 l 376 0 l 319 0 l 319 500 b 63 736 159 508 63 601 b 330 973 63 878 167 973 l 630 973 l 630 926 l 544 926 l 544 0 "},"":{"ha":345,"x_min":0,"x_max":0,"o":"m 172 432 b 98 507 130 432 98 465 b 172 581 98 547 130 581 b 247 507 213 581 247 547 b 172 432 247 464 213 432 "},"":{"ha":694,"x_min":0,"x_max":0,"o":"m 372 -283 b 244 -262 323 -283 280 -276 l 244 -197 b 347 -232 283 -220 317 -232 b 431 -172 404 -232 431 -214 b 328 -118 431 -134 389 -118 b 305 -119 321 -118 313 -119 l 338 0 l 380 0 l 355 -71 b 397 -67 370 -68 384 -68 b 521 -172 473 -67 521 -104 b 372 -283 521 -240 465 -283 "},"":{"ha":688,"x_min":0,"x_max":0,"o":""},"":{"ha":1032,"x_min":0,"x_max":0,"o":""},"":{"ha":640,"x_min":0,"x_max":0,"o":"m 68 119 l 68 144 l 208 325 l 68 505 l 68 530 l 78 530 l 310 325 l 78 119 m 281 119 l 281 144 l 420 325 l 281 505 l 281 530 l 290 530 l 522 325 l 290 119 "},"":{"ha":1158,"x_min":0,"x_max":0,"o":""},"":{"ha":1607,"x_min":0,"x_max":0,"o":""},"":{"ha":1158,"x_min":0,"x_max":0,"o":""},"":{"ha":507,"x_min":0,"x_max":0,"o":""},"":{"ha":1044,"x_min":0,"x_max":0,"o":""},"":{"ha":1044,"x_min":0,"x_max":0,"o":""},"":{"ha":1044,"x_min":0,"x_max":0,"o":""},"":{"ha":1044,"x_min":0,"x_max":0,"o":""},"":{"ha":1044,"x_min":0,"x_max":0,"o":""},"":{"ha":1044,"x_min":0,"x_max":0,"o":""},"":{"ha":1417,"x_min":0,"x_max":0,"o":""},"":{"ha":949,"x_min":0,"x_max":0,"o":""},"":{"ha":781,"x_min":0,"x_max":0,"o":""},"":{"ha":781,"x_min":0,"x_max":0,"o":""},"":{"ha":781,"x_min":0,"x_max":0,"o":""},"":{"ha":781,"x_min":0,"x_max":0,"o":""},"":{"ha":446,"x_min":0,"x_max":0,"o":""},"":{"ha":446,"x_min":0,"x_max":0,"o":""},"":{"ha":446,"x_min":0,"x_max":0,"o":""},"":{"ha":446,"x_min":0,"x_max":0,"o":""},"":{"ha":1029,"x_min":0,"x_max":0,"o":""},"":{"ha":1054,"x_min":0,"x_max":0,"o":""},"":{"ha":1095,"x_min":0,"x_max":0,"o":""},"":{"ha":1095,"x_min":0,"x_max":0,"o":""},"":{"ha":1095,"x_min":0,"x_max":0,"o":""},"":{"ha":1095,"x_min":0,"x_max":0,"o":""},"":{"ha":1095,"x_min":0,"x_max":0,"o":""},"":{"ha":688,"x_min":0,"x_max":0,"o":"m 344 419 l 176 252 l 109 319 l 277 486 l 109 654 l 176 721 l 344 553 l 511 721 l 512 721 l 578 654 l 411 486 l 578 319 l 578 318 l 511 252 "},"":{"ha":1095,"x_min":0,"x_max":0,"o":""},"":{"ha":1018,"x_min":0,"x_max":0,"o":""},"":{"ha":1018,"x_min":0,"x_max":0,"o":""},"":{"ha":1018,"x_min":0,"x_max":0,"o":""},"":{"ha":1018,"x_min":0,"x_max":0,"o":""},"":{"ha":836,"x_min":0,"x_max":0,"o":""},"":{"ha":760,"x_min":0,"x_max":0,"o":""},"":{"ha":848,"x_min":0,"x_max":0,"o":""},"":{"ha":625,"x_min":0,"x_max":0,"o":""},"":{"ha":625,"x_min":0,"x_max":0,"o":""},"":{"ha":625,"x_min":0,"x_max":0,"o":""},"":{"ha":625,"x_min":0,"x_max":0,"o":""},"":{"ha":625,"x_min":0,"x_max":0,"o":""},"":{"ha":625,"x_min":0,"x_max":0,"o":""},"":{"ha":984,"x_min":0,"x_max":0,"o":""},"":{"ha":614,"x_min":0,"x_max":0,"o":""},"":{"ha":616,"x_min":0,"x_max":0,"o":""},"":{"ha":616,"x_min":0,"x_max":0,"o":""},"":{"ha":616,"x_min":0,"x_max":0,"o":""},"":{"ha":616,"x_min":0,"x_max":0,"o":""},"":{"ha":349,"x_min":0,"x_max":0,"o":""},"":{"ha":349,"x_min":0,"x_max":0,"o":""},"":{"ha":349,"x_min":0,"x_max":0,"o":""},"":{"ha":349,"x_min":0,"x_max":0,"o":""},"":{"ha":772,"x_min":0,"x_max":0,"o":""},"":{"ha":751,"x_min":0,"x_max":0,"o":""},"":{"ha":685,"x_min":0,"x_max":0,"o":""},"":{"ha":685,"x_min":0,"x_max":0,"o":""},"":{"ha":685,"x_min":0,"x_max":0,"o":""},"":{"ha":685,"x_min":0,"x_max":0,"o":""},"":{"ha":685,"x_min":0,"x_max":0,"o":""},"":{"ha":688,"x_min":0,"x_max":0,"o":"m 59 439 l 59 534 l 628 534 l 629 533 l 629 439 m 345 160 b 326 170 338 160 332 163 l 266 238 b 259 256 261 244 259 250 b 270 277 259 262 262 269 l 326 334 b 345 343 332 340 339 343 b 366 332 351 343 358 340 l 420 274 b 429 254 426 267 429 260 b 419 233 429 248 425 241 l 365 174 b 345 160 356 165 349 160 m 345 630 b 326 640 338 630 332 633 l 266 708 b 259 726 261 714 259 720 b 270 747 259 732 262 739 l 326 804 b 345 813 332 810 339 813 b 366 802 351 813 358 810 l 420 744 b 429 724 426 736 429 730 b 419 703 429 718 425 711 l 365 644 b 345 630 356 635 349 630 "},"":{"ha":685,"x_min":0,"x_max":0,"o":""},"":{"ha":718,"x_min":0,"x_max":0,"o":""},"":{"ha":718,"x_min":0,"x_max":0,"o":""},"":{"ha":718,"x_min":0,"x_max":0,"o":""},"":{"ha":718,"x_min":0,"x_max":0,"o":""},"":{"ha":589,"x_min":0,"x_max":0,"o":""},"":{"ha":685,"x_min":0,"x_max":0,"o":""},"":{"ha":589,"x_min":0,"x_max":0,"o":""},"":{"ha":349,"x_min":0,"x_max":0,"o":"m 22 0 l 22 34 l 53 34 b 121 151 98 34 121 73 l 121 444 b 45 496 121 479 96 496 l 13 496 l 13 526 b 190 650 113 557 172 599 l 222 650 l 222 151 b 290 34 222 73 245 34 l 321 34 l 321 0 "},"":{"ha":0,"x_min":0,"x_max":0,"o":"m -64 732 l -288 870 b -330 926 -315 888 -330 906 b -279 974 -330 954 -310 974 b -214 934 -261 974 -245 964 l -17 732 "},"":{"ha":0,"x_min":0,"x_max":0,"o":"m -330 732 l -132 934 b -67 974 -102 964 -85 974 b -17 926 -37 974 -17 954 b -59 870 -17 906 -31 888 l -283 732 "},"":{"ha":0,"x_min":0,"x_max":0,"o":"m -68 733 l -226 880 l -384 733 l -423 733 l -266 974 l -186 974 l -28 733 "},"":{"ha":0,"x_min":0,"x_max":0,"o":"m -161 789 b -238 810 -183 789 -209 795 b -321 831 -267 824 -295 831 b -378 789 -348 831 -367 817 l -415 789 b -288 918 -398 855 -354 918 b -205 899 -263 918 -235 911 b -122 880 -176 886 -149 880 b -62 918 -95 880 -75 892 l -26 918 b -161 789 -43 854 -83 789 "},"":{"ha":0,"x_min":0,"x_max":0,"o":"m -357 810 l -357 895 l -7 895 l -7 810 "},"":{"ha":0,"x_min":0,"x_max":0,"o":"m -189 774 b -207 782 -197 774 -203 777 l -258 841 b -263 857 -261 844 -263 849 b -254 874 -263 862 -261 868 l -207 923 b -189 931 -201 928 -195 931 b -172 923 -183 931 -177 928 l -123 871 b -117 855 -119 868 -117 863 b -125 837 -118 847 -119 842 b -189 774 -161 798 -178 774 "},"":{"ha":0,"x_min":0,"x_max":0,"o":"m -334 774 b -351 783 -340 774 -347 777 l -403 841 b -409 857 -407 846 -409 852 b -399 874 -409 863 -406 868 l -351 923 b -334 931 -345 928 -340 931 b -316 922 -330 931 -323 928 l -269 872 b -262 855 -264 866 -262 860 b -271 837 -262 849 -265 843 l -317 786 b -334 774 -325 779 -331 774 m -87 774 b -104 783 -93 774 -99 777 l -155 842 b -161 857 -159 846 -161 852 b -152 874 -161 863 -158 868 l -104 923 b -87 931 -98 928 -92 931 b -68 922 -82 931 -76 928 l -22 872 b -15 855 -17 866 -15 860 b -23 838 -15 849 -18 844 l -70 786 b -87 774 -77 779 -83 774 "},"":{"ha":0,"x_min":0,"x_max":0,"o":"m -170 785 b -102 853 -132 785 -102 815 b -170 920 -102 889 -132 920 b -237 853 -208 920 -237 889 b -170 785 -237 815 -208 785 m -170 732 b -289 853 -237 732 -289 785 b -170 973 -289 922 -236 973 b -48 853 -100 973 -48 920 b -170 732 -48 785 -100 732 "},"":{"ha":0,"x_min":0,"x_max":0,"o":"m -266 732 l -423 974 l -384 974 l -226 829 l -68 974 l -28 974 l -186 732 "},"":{"ha":0,"x_min":0,"x_max":0,"o":"m -191 -283 b -319 -262 -241 -283 -283 -276 l -319 -197 b -216 -232 -281 -220 -247 -232 b -133 -172 -159 -232 -133 -214 b -235 -118 -133 -134 -175 -118 b -258 -119 -243 -118 -250 -119 l -226 0 l -183 0 l -208 -71 b -166 -67 -194 -68 -180 -68 b -43 -172 -90 -67 -43 -104 b -191 -283 -43 -240 -98 -283 "},"":{"ha":751,"x_min":0,"x_max":0,"o":"m 38 284 l 38 366 l 713 366 l 713 284 "},"":{"ha":1389,"x_min":0,"x_max":0,"o":"m 0 284 l 0 366 l 1389 366 l 1389 284 "},"":{"ha":378,"x_min":0,"x_max":0,"o":"m 216 689 b 126 836 177 689 126 756 b 269 1069 126 934 205 1069 l 269 1040 b 210 911 235 1021 216 978 b 297 802 210 858 239 821 l 297 774 l 216 689 "},"":{"ha":378,"x_min":0,"x_max":0,"o":"m 109 718 b 168 847 142 738 162 781 b 81 956 168 901 139 937 l 81 985 l 161 1069 b 252 922 201 1069 252 1002 b 109 689 252 825 173 689 "},"":{"ha":378,"x_min":0,"x_max":0,"o":"m 109 -161 b 168 -32 142 -141 162 -98 b 81 77 168 22 139 58 l 81 106 l 161 191 b 252 43 201 191 252 123 b 109 -190 252 -54 173 -190 "},"":{"ha":617,"x_min":0,"x_max":0,"o":"m 216 689 b 126 836 177 689 126 756 b 269 1069 126 934 205 1069 l 269 1040 b 210 911 235 1021 216 978 b 297 802 210 858 239 821 l 297 774 l 216 689 m 456 689 b 366 836 416 689 366 756 b 508 1069 366 934 444 1069 l 508 1040 b 449 911 475 1021 455 978 b 536 802 449 858 478 821 l 536 774 l 456 689 "},"":{"ha":617,"x_min":0,"x_max":0,"o":"m 109 718 b 168 847 142 738 162 781 b 81 956 168 901 139 937 l 81 985 l 161 1069 b 252 922 201 1069 252 1002 b 109 689 252 825 173 689 m 349 718 b 408 847 382 738 401 781 b 320 956 408 901 378 937 l 320 985 l 401 1069 b 491 922 440 1069 491 1002 b 349 689 491 825 412 689 "},"":{"ha":617,"x_min":0,"x_max":0,"o":"m 109 -161 b 168 -32 142 -141 162 -98 b 81 77 168 22 139 58 l 81 106 l 161 191 b 252 43 201 191 252 123 b 109 -190 252 -54 173 -190 m 349 -161 b 408 -32 382 -141 401 -98 b 320 77 408 22 378 58 l 320 106 l 401 191 b 491 43 440 191 491 123 b 349 -190 491 -54 412 -190 "},"":{"ha":688,"x_min":0,"x_max":0,"o":"m 332 -183 b 254 477 329 50 303 269 b 330 665 300 523 326 586 b 209 628 286 661 246 648 b 121 589 163 602 134 589 b 48 679 76 589 48 626 b 115 768 48 729 74 768 b 208 730 130 768 161 755 b 330 693 247 709 287 697 b 293 814 326 737 314 777 b 254 901 267 859 254 888 b 344 975 254 947 291 975 b 433 907 394 975 433 949 b 396 814 433 893 421 862 b 359 693 375 776 363 736 b 479 730 402 696 442 709 b 566 768 524 755 553 768 b 640 679 610 768 640 734 b 572 589 640 629 614 589 b 480 627 558 589 527 602 b 359 665 441 648 401 661 b 433 477 362 586 387 523 b 357 -183 385 269 360 50 "},"":{"ha":688,"x_min":0,"x_max":0,"o":"m 343 -183 b 254 -110 290 -183 254 -155 b 292 -22 254 -97 267 -68 b 329 98 313 14 326 54 b 208 61 286 94 246 82 b 115 23 160 36 129 23 b 47 113 73 23 47 62 b 121 202 47 165 75 202 b 208 163 134 202 163 189 b 329 126 245 143 286 131 b 254 396 325 229 300 318 b 329 665 300 473 325 563 b 208 628 286 661 245 648 b 121 589 163 602 134 589 b 47 679 75 589 47 626 b 115 768 47 729 73 768 b 208 730 129 768 160 755 b 329 693 246 709 286 697 b 292 814 326 737 313 777 b 254 901 267 859 254 888 b 343 975 254 947 290 975 b 433 907 393 975 433 949 b 395 814 433 893 420 862 b 358 693 374 776 362 736 b 478 730 401 696 441 709 b 566 768 524 755 553 768 b 640 679 610 768 640 734 b 572 589 640 629 614 589 b 479 627 557 589 526 602 b 358 665 441 648 401 661 b 433 396 361 563 387 473 b 358 126 387 318 361 229 b 479 165 401 131 441 144 b 572 202 526 190 557 202 b 640 113 614 202 640 162 b 566 23 640 58 610 23 b 478 62 553 23 524 36 b 358 98 441 83 401 95 b 395 -23 362 56 374 16 b 433 -116 420 -71 433 -102 b 343 -183 433 -157 393 -183 "},"":{"ha":694,"x_min":0,"x_max":0,"o":"m 347 286 b 146 487 233 286 146 376 b 348 687 146 600 237 687 b 548 487 459 687 548 597 b 347 286 548 375 456 286 "},"":{"ha":1389,"x_min":0,"x_max":0,"o":"m 174 -3 b 154 6 166 -3 160 0 l 94 75 b 87 92 90 81 87 86 b 98 113 87 99 91 106 l 154 170 b 174 180 161 176 168 180 b 195 169 180 180 186 176 l 249 111 b 257 91 254 103 257 97 b 248 70 257 84 254 77 l 193 10 b 174 -3 184 1 178 -3 m 637 -3 b 617 6 629 -3 623 0 l 557 75 b 551 92 553 81 551 86 b 562 113 551 99 554 106 l 617 170 b 637 180 624 176 631 180 b 658 169 643 180 650 176 l 712 111 b 720 91 718 103 720 97 b 711 70 720 84 717 77 l 656 10 b 637 -3 648 1 641 -3 m 1100 -3 b 1080 6 1093 -3 1086 0 l 1021 75 b 1014 92 1016 81 1014 86 b 1025 113 1014 99 1017 106 l 1080 170 b 1100 180 1087 176 1094 180 b 1121 169 1106 180 1113 176 l 1175 111 b 1183 91 1181 103 1183 97 b 1174 70 1183 84 1180 77 l 1120 10 b 1100 -3 1111 1 1104 -3 "},"":{"ha":428,"x_min":0,"x_max":0,"o":"m 350 119 l 118 325 l 350 530 l 359 530 l 359 505 l 220 325 l 359 144 l 359 119 "},"":{"ha":428,"x_min":0,"x_max":0,"o":"m 68 119 l 68 144 l 208 325 l 68 505 l 68 530 l 78 530 l 310 325 l 78 119 "},"":{"ha":232,"x_min":0,"x_max":0,"o":"m -232 -20 l 406 971 l 463 971 l -174 -20 "},"":{"ha":688,"x_min":0,"x_max":0,"o":"m 33 0 l 33 34 l 98 34 b 168 193 144 34 168 87 l 168 242 l 36 242 l 36 283 l 168 283 l 168 779 b 98 939 168 886 144 939 l 33 939 l 33 972 l 653 972 l 723 816 l 690 816 b 561 939 663 898 620 939 l 347 939 b 277 779 300 939 277 886 l 277 541 l 522 541 b 590 583 568 541 590 555 l 590 623 l 624 623 l 624 391 l 590 391 l 590 431 b 522 473 590 459 568 473 l 277 473 l 277 283 l 409 283 l 409 242 l 277 242 l 277 193 b 347 34 277 87 300 34 l 412 34 l 412 0 "},"":{"ha":688,"x_min":0,"x_max":0,"o":"m 77 0 l 78 34 b 205 317 163 142 205 236 b 182 414 205 352 197 385 l 180 416 l 64 416 l 64 456 l 161 456 l 143 497 l 52 497 l 52 538 l 128 538 b 104 669 112 586 104 630 b 398 986 104 882 236 986 b 599 954 469 986 599 972 l 599 844 l 573 844 b 397 935 569 898 509 935 b 212 703 310 935 212 842 b 235 538 212 641 220 586 l 492 538 l 492 497 l 248 497 b 266 456 254 484 260 470 l 505 456 l 505 416 l 287 416 b 311 322 302 387 311 356 b 201 68 311 250 274 165 l 473 68 b 602 157 532 68 575 98 l 635 157 l 565 0 "},"":{"ha":1375,"x_min":0,"x_max":0,"o":"m 434 345 b 607 637 541 345 607 490 b 499 916 607 752 568 872 b 423 939 474 931 448 939 l 409 939 l 277 939 l 277 490 l 282 478 b 434 345 317 390 378 345 m 1124 28 b 1267 156 1208 28 1267 81 b 1091 309 1267 202 1208 253 b 964 484 1003 355 964 404 b 1014 615 964 538 981 582 l 1015 616 l 893 616 l 893 151 b 971 45 893 83 919 52 l 923 176 l 956 176 b 1124 28 1006 57 1057 28 m 1123 -13 b 1014 -1 1079 -13 1046 -1 b 949 -7 993 -1 973 -7 b 793 151 843 -7 800 39 l 792 151 l 792 617 l 705 617 b 576 366 698 519 655 420 b 448 322 535 336 492 322 b 277 400 389 322 323 351 l 277 193 b 347 34 277 87 300 34 l 412 34 l 412 0 l 33 0 l 33 34 l 98 34 b 168 193 144 34 168 87 l 168 779 b 98 939 168 886 144 939 l 33 939 l 33 972 l 452 972 b 671 810 535 970 623 916 b 706 650 694 760 705 706 b 859 890 808 650 859 720 l 893 890 l 893 650 l 1069 650 b 1145 663 1087 658 1113 663 b 1289 631 1196 663 1289 650 l 1289 524 l 1261 524 b 1126 625 1257 585 1190 625 b 1030 535 1067 625 1030 589 b 1190 386 1030 486 1083 437 b 1334 202 1295 338 1334 287 b 1278 45 1334 139 1315 87 b 1123 -13 1232 7 1180 -12 "},"":{"ha":688,"x_min":0,"x_max":0,"o":"m 467 0 b 168 138 345 0 245 46 b 43 443 92 230 50 332 l -30 443 l -18 484 l 41 484 l 41 503 l 41 524 l -7 524 l 5 565 l 44 565 b 160 862 50 667 89 766 b 451 1006 231 958 328 1006 b 581 977 509 1006 568 977 b 600 1008 587 977 593 987 l 627 1008 l 684 817 l 657 817 b 556 937 635 873 602 913 b 440 972 511 960 472 972 b 228 852 360 972 290 932 b 131 565 166 772 134 677 l 610 565 l 598 524 l 129 524 b 130 484 129 511 130 497 l 587 484 l 576 443 l 134 443 b 241 161 141 340 177 246 b 467 34 304 77 380 35 b 622 97 538 35 589 56 b 671 221 654 137 671 178 l 703 221 l 703 124 b 467 0 703 59 585 2 "},"":{"ha":1540,"x_min":0,"x_max":0,"o":""},"":{"ha":1015,"x_min":0,"x_max":0,"o":""},"":{"ha":688,"x_min":0,"x_max":0,"o":"m 370 7 b 465 56 399 7 435 21 b 530 278 507 103 530 189 b 404 605 530 412 476 547 b 309 639 368 633 342 639 b 168 471 250 635 191 578 b 157 364 161 433 157 397 b 370 7 157 165 269 7 m 344 -17 b 91 153 247 -17 144 41 b 52 323 65 207 52 264 b 201 619 52 437 103 557 b 344 663 248 648 295 663 b 524 591 404 663 473 638 b 144 952 449 802 307 940 l 144 989 b 494 796 283 989 399 925 b 635 323 588 667 635 510 b 490 28 635 209 587 90 b 344 -17 443 -2 395 -17 "},"":{"ha":733,"x_min":0,"x_max":0,"o":"m 349 810 l 73 83 l 616 83 m 4 0 l 371 972 l 728 0 "},"":{"ha":1027,"x_min":0,"x_max":0,"o":"m 33 -283 l 33 -249 l 98 -249 b 168 -90 144 -249 168 -196 l 168 779 b 98 939 168 886 144 939 l 33 939 l 33 972 l 995 972 l 995 939 l 929 939 b 860 779 883 939 860 886 l 860 -90 b 929 -249 860 -196 883 -249 l 995 -249 l 995 -283 l 615 -283 l 615 -249 l 680 -249 b 750 -90 727 -249 750 -196 l 750 779 b 680 939 750 886 727 939 l 347 939 b 277 779 300 939 277 886 l 277 -90 b 347 -249 277 -196 300 -249 l 412 -249 l 412 -283 "},"":{"ha":818,"x_min":0,"x_max":0,"o":"m 81 -282 l 81 -248 b 153 -212 109 -248 134 -236 l 603 317 l 153 900 b 81 939 134 926 109 939 l 81 972 l 706 972 l 776 815 l 743 815 b 614 939 716 897 673 939 l 286 939 l 718 372 l 184 -248 l 614 -248 b 743 -125 673 -248 716 -207 l 776 -125 l 706 -282 "},"":{"ha":688,"x_min":0,"x_max":0,"o":"m 59 439 l 59 534 l 628 534 l 629 533 l 629 439 "},"":{"ha":688,"x_min":0,"x_max":0,"o":"m 12 243 l 62 267 l 119 142 l 613 1139 l 715 1139 l 715 1098 l 666 1098 l 123 0 "},"":{"ha":688,"x_min":0,"x_max":0,"o":"m 471 239 b 378 279 440 239 410 252 b 305 412 346 305 322 350 b 180 280 277 324 235 280 b 45 486 109 280 45 356 b 180 692 45 598 103 692 b 305 561 239 692 281 648 b 471 734 321 655 389 734 b 645 486 567 734 645 629 b 471 239 645 340 556 239 m 463 330 b 575 384 500 330 537 348 b 632 508 613 420 632 461 b 494 644 630 591 574 644 b 389 608 457 644 422 632 b 316 466 355 583 330 536 b 376 366 321 422 341 389 b 463 330 410 342 439 330 m 163 355 b 242 385 193 355 219 365 b 298 512 264 406 283 448 b 191 617 284 587 243 617 b 54 467 113 617 54 541 b 163 355 56 410 95 355 "},"":{"ha":451,"x_min":0,"x_max":0,"o":"m -8 -191 b -49 -171 -35 -191 -49 -184 l -49 -63 l -24 -63 b 43 -121 -24 -103 14 -121 b 121 -12 80 -121 106 -85 b 148 203 135 62 144 133 l 195 701 l 201 743 b 292 1034 213 850 243 947 b 451 1164 341 1120 394 1164 b 492 1144 478 1164 492 1157 l 492 1036 l 467 1036 b 401 1095 467 1076 428 1095 b 289 743 335 1095 292 929 l 239 222 b 151 -62 231 118 201 23 b -8 -191 101 -148 48 -191 "},"":{"ha":688,"x_min":0,"x_max":0,"o":"m 64 602 b 224 686 120 666 174 686 b 348 653 254 686 294 675 b 465 619 401 631 439 619 b 626 714 513 619 563 642 l 626 608 b 465 525 570 545 517 525 b 345 558 437 525 397 536 b 224 591 291 580 251 591 b 64 496 176 591 127 568 m 64 366 b 224 450 120 430 174 450 b 348 417 254 450 294 439 b 465 383 401 395 439 383 b 626 478 513 383 563 406 l 626 372 b 465 289 570 309 517 289 b 345 322 437 289 397 300 b 224 355 291 344 251 355 b 64 260 176 355 127 332 "},"":{"ha":688,"x_min":0,"x_max":0,"o":"m 59 469 l 59 525 l 629 853 l 629 740 l 205 496 l 629 256 l 629 142 m 59 0 l 59 95 l 628 95 l 629 94 l 629 0 "},"":{"ha":688,"x_min":0,"x_max":0,"o":"m 59 256 l 483 496 l 59 740 l 59 853 l 629 525 l 629 469 l 59 142 m 59 0 l 59 95 l 628 95 l 629 94 l 629 0 "},"":{"ha":728,"x_min":0,"x_max":0,"o":""},"":{"ha":733,"x_min":0,"x_max":0,"o":""}}}
